<svg class="main-svg" xmlns="http://www.w3.org/2000/svg" xmlns:xlink="http://www.w3.org/1999/xlink" width="700" height="500" style="" viewBox="0 0 700 500"><rect x="0" y="0" width="700" height="500" style="fill: rgb(255, 255, 255); fill-opacity: 1;"/><defs id="defs-f7c48c"><g class="clips"><clipPath id="clipf7c48cxyplot" class="plotclip"><rect width="499" height="320"/></clipPath><clipPath class="axesclip" id="clipf7c48cx"><rect x="80" y="0" width="499" height="500"/></clipPath><clipPath class="axesclip" id="clipf7c48cy"><rect x="0" y="100" width="700" height="320"/></clipPath><clipPath class="axesclip" id="clipf7c48cxy"><rect x="80" y="100" width="499" height="320"/></clipPath></g><g class="gradients"/></defs><g class="bglayer"><rect class="bg" x="80" y="100" width="499" height="320" style="fill: rgb(229, 236, 246); fill-opacity: 1; stroke-width: 0;"/></g><g class="layer-below"><g class="imagelayer"/><g class="shapelayer"/></g><g class="cartesianlayer"><g class="subplot xy"><g class="layer-subplot"><g class="shapelayer"/><g class="imagelayer"/></g><g class="gridlayer"><g class="x"><path class="xgrid crisp" transform="translate(179.8,0)" d="M0,100v320" style="stroke: rgb(255, 255, 255); stroke-opacity: 1; stroke-width: 1px;"/><path class="xgrid crisp" transform="translate(279.6,0)" d="M0,100v320" style="stroke: rgb(255, 255, 255); stroke-opacity: 1; stroke-width: 1px;"/><path class="xgrid crisp" transform="translate(379.41,0)" d="M0,100v320" style="stroke: rgb(255, 255, 255); stroke-opacity: 1; stroke-width: 1px;"/><path class="xgrid crisp" transform="translate(479.21,0)" d="M0,100v320" style="stroke: rgb(255, 255, 255); stroke-opacity: 1; stroke-width: 1px;"/></g><g class="y"><path class="ygrid crisp" transform="translate(0,349.46000000000004)" d="M80,0h499" style="stroke: rgb(255, 255, 255); stroke-opacity: 1; stroke-width: 1px;"/><path class="ygrid crisp" transform="translate(0,294.91999999999996)" d="M80,0h499" style="stroke: rgb(255, 255, 255); stroke-opacity: 1; stroke-width: 1px;"/><path class="ygrid crisp" transform="translate(0,240.39)" d="M80,0h499" style="stroke: rgb(255, 255, 255); stroke-opacity: 1; stroke-width: 1px;"/><path class="ygrid crisp" transform="translate(0,185.85)" d="M80,0h499" style="stroke: rgb(255, 255, 255); stroke-opacity: 1; stroke-width: 1px;"/><path class="ygrid crisp" transform="translate(0,131.31)" d="M80,0h499" style="stroke: rgb(255, 255, 255); stroke-opacity: 1; stroke-width: 1px;"/></g></g><g class="zerolinelayer"><path class="yzl zl crisp" transform="translate(0,404)" d="M80,0h499" style="stroke: rgb(255, 255, 255); stroke-opacity: 1; stroke-width: 2px;"/></g><path class="xlines-below"/><path class="ylines-below"/><g class="overlines-below"/><g class="xaxislayer-below"/><g class="yaxislayer-below"/><g class="overaxes-below"/><g class="plot" transform="translate(80, 100)" clip-path="url('#clipf7c48cxyplot')"><g class="scatterlayer mlayer"><g class="trace scatter trace8e32ca" style="stroke-miterlimit: 2; opacity: 1;"><g class="fills"/><g class="errorbars"/><g class="lines"><path class="js-line" d="M0,303.91L0.71,195.46L0.79,203.61L0.8,231.45L1.25,214.9L1.5,258.99L1.54,227.83L1.55,251.34L1.66,214.08L1.95,264.7L2.3,235.27L2.31,227.77L2.59,201.2L2.91,236.39L3,211.45L3.01,232.94L3.41,239.69L3.68,193.53L3.75,232.32L3.76,239.28L3.79,244.94L4.55,208.41L4.56,214.52L4.65,165.15L5.17,277.35L5.33,246.93L5.34,233.46L5.35,275.34L5.86,212.62L6.08,234.55L6.09,217.44L6.67,205.93L6.73,259.8L6.84,240.69L6.85,238.37L7.01,255.29L7.11,218.64L7.58,241.83L7.59,222.93L7.79,213.76L7.81,265.54L8.34,230.89L8.35,218.49L8.87,251.59L8.92,199.68L9.11,236.41L9.12,216.75L9.13,201.98L9.53,247.32L9.86,221.74L9.87,222.37L10.06,165.49L10.35,243.74L10.47,208.68L10.48,187.76L10.75,241.21L11.25,223.82L11.26,215.43L11.36,167.64L11.7,236.96L11.9,203.76L11.91,176.25L11.93,235.11L12.23,152.81L12.65,181.83L12.66,216.09L12.69,194.11L13.22,248.79L13.41,229.69L13.42,217.77L13.74,166.11L14.01,240.84L14.09,226.02L14.1,206.43L14.42,195.68L14.7,235.7L14.85,220.76L14.86,215.03L14.9,237.94L15.47,164.02L15.54,168.22L15.55,166.3L15.62,162.72L15.63,188.55L15.64,228.01L15.93,236.06L16.34,160.63L16.44,171.3L16.45,171.58L17.06,184.83L17.08,154.11L17.09,230.64L17.25,164.32L17.36,238.34L17.84,225.43L17.85,225.83L17.88,246.63L18.4,200.78L18.53,215.5L18.54,164.16L18.92,156.43L19.22,237.52L19.3,182.49L19.31,167.83L19.32,159.8L19.79,237.92L20,211.97L20.01,222.03L20.2,160.47L20.37,237.18L20.44,224.8L20.45,232.4L20.8,248.91L21.2,195.91L21.21,214.93L21.22,217.5L21.51,237.83L21.71,178.62L21.91,233.86L21.92,234.37L22.28,198.96L22.58,244.14L22.67,231.27L22.68,229.48L22.71,201.48L22.96,242.59L23.43,220.7L23.44,236.13L23.45,249.81L23.83,164.05L24.17,216.83L24.18,208.82L24.52,195.4L24.73,239.77L24.93,227.08L24.94,221.93L25.06,184.38L25.23,231.91L25.66,219.34L25.67,206.51L25.7,237.77L26.35,162.92L26.37,169.38L26.38,161.73L26.45,154.95L26.63,226.33L26.78,218.88L26.79,239.77L27.01,184.11L27.51,249.66L27.54,226.32L27.55,230.19L27.61,189.08L27.63,240.73L28.31,195.53L28.32,224L28.7,164.91L28.82,241.92L29.07,224.04L29.08,213.47L29.37,166.03L29.7,235.01L29.81,219.7L29.82,208.42L29.84,229.97L29.93,192.9L30.07,216.41L30.08,174.56L30.27,240.08L30.83,209.94L30.84,217.7L31.41,236L31.45,188.03L31.6,227.48L31.61,205.98L32.02,158.92L32.12,237.86L32.35,215.28L32.36,204.52L32.61,175.5L32.65,234.88L33.13,227.58L33.14,193L33.28,165.73L33.47,239.31L33.89,227.31L33.9,213.88L34.11,178.64L34.39,237.8L34.65,226.79L34.66,225.81L34.76,241.05L35.29,161.96L35.34,193.75L35.35,223.74L35.47,242.06L35.74,181.79L36.1,220.59L36.11,213.84L36.55,197.33L36.58,241.21L36.75,220.32L36.76,236.87L37.23,242.63L37.42,165.76L37.51,212.85L37.52,227.56L37.71,246.24L37.91,188.54L38.27,227.47L38.28,230.32L38.3,185.51L38.51,250.53L38.96,209.95L38.97,228.41L39.06,233.47L39.19,202.76L39.2,195.28L39.61,244.6L39.93,187.37L39.95,221.3L39.96,214.58L40.09,195.37L40.37,239.77L40.66,225.32L40.67,189.63L41.34,241.93L41.43,212.13L41.44,224.25L41.63,206.18L41.73,242.51L42.17,214.24L42.18,242.47L42.85,251.43L42.89,200.6L42.94,217.04L42.95,234.3L43.36,212.78L43.52,248.19L43.7,233.08L43.71,228.49L43.79,245.72L43.91,201.6L44.44,231.11L44.45,204.57L44.56,165.79L44.92,240.94L45.22,225.04L45.23,214.08L45.31,195.48L45.87,241.56L45.98,226.88L45.99,224.26L46.15,246.56L46.57,201.89L46.75,208.55L46.76,212.21L46.86,233.74L47.24,162.52L47.33,224.63L47.34,233.13L47.44,235.43L47.67,192.72L48.09,224.63L48.1,232L48.11,234.65L48.22,203.21L48.8,229.55L48.81,219.55L48.84,186.51L49.4,241.7L49.57,233.4L49.58,227.65L49.61,235.61L50.24,161.3L50.54,165.88L50.55,168.73L50.76,165.49L50.89,233.67L51.09,213.72L51.1,233.71L51.23,190.95L51.35,238.17L51.86,214.99L51.87,215.42L52.21,242.26L52.34,191.64L52.62,221.1L52.63,228.96L52.7,236.33L52.98,193.48L53.26,226.51L53.27,211.58L53.47,200.6L53.63,237.89L54.03,231.03L54.04,215.71L54.38,199.14L54.54,241.08L54.8,225.32L54.81,221.85L54.86,238.48L54.99,193.67L55.54,216.16L55.55,226.63L55.78,241.8L56.22,196.48L56.3,225.12L56.31,226.67L56.72,240.83L56.95,164.57L57.05,210.93L57.06,230.09L57.15,192.19L57.38,238.57L57.81,218.12L57.82,223.95L57.87,227.65L58.34,195.38L58.58,206.65L58.59,209.8L58.82,181.69L59.26,227.51L59.33,205.54L59.34,209.04L59.36,192.81L59.69,229.68L60.08,221.12L60.09,204.99L60.73,188.84L60.74,227.19L60.84,219.65L60.85,204.51L60.88,195.96L60.99,223.4L61.6,216.97L61.61,212.17L61.74,226.86L61.96,192.15L62.26,215.38L62.27,202.95L62.39,168.57L63.03,227L63.04,201.6L63.16,229.28L63.39,193.33L63.59,217.17L63.6,221.13L63.83,190.27L64.05,224.18L64.36,202.48L64.37,222.78L64.4,190.21L64.75,233.99L65.13,203.97L65.14,221.45L65.34,228.74L65.51,197.35L65.92,208.05L65.93,223.76L66.11,231.04L66.39,193.58L66.61,212.53L66.62,226.21L67,191.15L67.37,205.97L67.38,210.66L67.44,223.54L67.66,192.06L68.13,212.96L68.14,193.81L68.22,224.49L68.9,221.32L68.91,200.27L69.01,232.02L69.62,223.74L69.63,208.59L69.93,193.38L70.11,232.21L70.21,213.19L70.22,194.12L70.58,231.06L70.97,205.06L70.98,209.74L71.01,234.29L71.38,191.42L71.73,222.92L71.74,192.28L72.33,230.49L72.5,227.02L72.51,216.48L72.84,225.1L72.97,194.61L73.06,209.53L73.07,220.67L73.09,200.73L73.1,201.64L73.11,196.86L73.25,233.69L73.74,191.95L73.86,221.97L73.87,214.55L73.92,178.4L74.62,226.7L74.63,204.1L74.78,196.04L75.26,239.92L75.38,208.74L75.39,209.03L75.58,200.67L75.65,236.48L76.16,227.28L76.17,215.36L76.28,232.72L76.56,191.01L76.77,220.23L76.78,222.08L76.93,160.48L77.24,238.36L77.52,218.39L77.53,226.69L77.69,233.33L78.22,193.96L78.3,211.7L78.31,223.05L78.37,203.96L78.88,240.04L78.89,244.45L79.52,199.93L79.64,212.56L79.65,240.48L80.42,165.98L80.43,172.85L80.44,158.86L80.9,242.33L81.13,221.74L81.14,229.95L81.29,240.79L81.86,196.54L81.88,222.93L81.89,235.54L82.1,239.44L82.2,200.21L82.64,209.33L82.65,222L82.75,237.9L82.92,162.14L83.36,227.7L83.37,231.37L83.38,238.72L83.57,201.28L84.1,219.42L84.11,216.02L84.53,206L84.63,242.49L84.82,223.32L84.83,241.58L85.3,199.46L85.58,223.38L85.59,220.66L85.63,232.69L85.94,165.66L86.08,198.04L86.09,217.14L86.17,188.99L86.5,234.76L86.64,214.18L86.65,173.1L86.75,161.6L87.01,235.74L87.09,221.84L87.1,232.12L87.42,243.81L87.85,203.6L87.86,227.18L88.41,240.59L88.55,188.02L88.63,216.87L88.64,224.78L88.93,200.87L89.2,248.82L89.39,218.41L89.4,218.27L89.49,244.87L90.06,203.36L90.07,218.19L90.08,221.4L90.23,231.28L90.29,199.85L90.3,181.8L90.93,239.83L91.05,204.75L91.06,213.15L91.24,186.02L91.5,237.15L91.51,177.07L91.52,164.81L92.14,241.94L92.21,212.67L92.22,226.43L92.37,239.65L92.96,161.03L93.02,170.38L93.03,174.83L93.18,159.89L93.61,236.36L93.72,210.15L93.73,228.03L94.32,191.79L94.33,252.64L94.49,206.22L94.5,224.3L94.79,193.51L94.87,239.37L95.23,211.32L95.24,232.35L95.36,240.47L95.65,204.92L95.78,211.83L95.79,187.23L96.16,239.67L96.28,163.27L96.53,168.26L96.54,173.84L96.88,162.18L97.06,231.67L97.33,210.6L97.34,203.77L97.75,237.22L98.06,196.52L98.09,219.26L98.1,213.27L98.35,230.16L98.45,192.88L98.85,218.35L98.86,216.07L98.89,226.86L99.43,161.07L99.74,171.34L99.75,176.2L99.76,176.71L99.77,173.26L99.78,213.51L99.93,239.47L100.24,163.86L100.53,204.83L100.54,220.95L100.6,240.61L100.69,190.55L101.3,211.66L101.31,233.29L101.87,166.4L101.99,234.99L102.06,211.16L102.07,225.84L102.22,164.32L102.73,238.22L102.82,216.76L102.83,221.84L102.88,231.02L103.1,161.43L103.59,207.32L103.6,219.81L103.72,159.57L103.95,236.04L104.34,224.73L104.35,206.03L104.65,164.57L104.83,234.66L105.1,210.08L105.11,187.79L105.61,236.99L105.68,160.61L105.84,175.58L105.85,166.92L105.97,159.63L106.15,227.49L106.32,216.03L106.33,215.36L106.38,165.11L107,233.16L107.07,215.85L107.08,221.29L107.6,233.01L107.69,187.86L107.75,204.3L107.76,228.24L107.79,192.68L107.8,170.13L108.08,230.75L108.56,225.07L108.57,215.6L108.72,192.99L109.02,227.22L109.33,202.39L109.34,225.16L109.4,190.36L109.75,233.46L110.11,201.03L110.12,216.08L110.23,197.74L110.34,229.47L110.85,211.36L110.86,207.31L111.21,231.29L111.35,192.99L111.58,196.09L111.59,222.75L112.11,194.9L112.27,228.01L112.34,202.14L112.35,221.54L112.47,231.22L112.93,195.8L113.07,204.79L113.08,227.25L113.27,233.03L113.47,191.85L113.84,203.67L113.85,200.25L114.04,234.43L114.07,189.45L114.6,212.1L114.61,219.04L114.66,235.49L114.74,192.15L115.26,223.26L115.27,203.25L115.36,232.36L115.7,164.1L115.9,171.47L115.91,163.94L116.44,234.65L116.6,163.25L116.64,170.88L116.65,171.18L116.97,235.06L117.28,160.93L117.39,162.52L117.4,179.94L117.54,157.66L117.59,184.74L118.15,167.36L118.16,173.85L118.28,161.63L118.74,241.88L118.79,225.92L118.8,228.08L119.11,163.74L119.56,196.32L119.57,207.06L120,229.78L120.3,182.08L120.31,222.22L120.82,183L120.94,242.63L121,200.67L121.01,169.22L121.1,178.97L121.6,161.97L121.75,163.89L121.76,172.16L121.91,162.73L122.06,229.42L122.34,205.25L122.35,221.98L122.36,222.65L122.38,192.79L122.39,173.09L122.43,162.09L122.77,233.6L123.08,206.51L123.09,223.23L123.18,228.81L123.71,190.88L123.83,224.24L123.84,230.81L124.4,162.99L124.63,172.91L124.64,171.69L124.83,179.65L125.3,159.22L125.38,173.32L125.39,173.58L125.67,159.94L125.72,182.78L126.12,171.22L126.13,181.42L126.28,159.24L126.61,227.91L126.85,210.41L126.86,223.75L127.16,189.65L127.31,240.26L127.61,222.3L127.62,224.44L127.67,189.33L128.25,238.01L128.38,203.86L128.39,239.67L128.54,194.7L129.16,205.91L129.17,219.95L129.22,243.14L129.79,160.15L129.95,173.7L129.96,175.83L129.99,167.42L130.01,188.29L130.06,173.29L130.07,226.33L130.56,196.06L130.78,233.85L130.81,211.42L130.82,231.61L131.04,200.72L131.3,241.42L131.57,226.19L131.58,216.75L131.6,233.57L131.64,211.68L131.65,215.67L131.66,205.79L132.05,238.14L132.25,197.47L132.42,228.24L132.43,205.35L132.44,186.71L133.08,234.35L133.17,215.78L133.18,209.53L133.52,231.6L133.81,188.87L133.92,202.31L133.93,203.03L134.02,191.1L134.15,226.45L134.69,215.45L134.7,209.73L134.74,229.71L134.91,181.14L135.45,213.16L135.46,203.46L135.69,226.13L136.11,190.5L136.21,216.19L136.22,207.48L136.32,191.98L136.37,230.28L136.97,221.45L136.98,206.78L137.66,231.37L137.69,200.71L137.74,221.37L137.75,217.81L137.83,194.78L137.85,231.87L138.38,216.71L138.39,208.63L139.02,192.4L139.08,229.73L139.13,214.31L139.14,207.61L139.22,199.78L139.58,231.17L139.85,201.23L139.86,218.22L140.27,229.7L140.48,192.54L140.61,216.46L140.62,218.69L140.92,196.34L141.1,230.7L141.37,213.89L141.38,215.62L141.77,193.37L142.1,227.15L142.13,205.44L142.14,221.14L142.18,205.21L142.21,225.15L142.24,217.18L142.25,232.26L142.56,190.68L143.01,213.01L143.02,222.51L143.08,187.89L143.46,222.62L143.78,199.65L143.79,206.49L143.87,225.69L144.17,190.23L144.53,210.31L144.54,202.43L144.85,190.24L144.98,227.92L145.28,201.49L145.29,201.05L145.63,230.01L145.81,192L145.99,214.9L146,193.54L146.58,227.82L146.75,205.24L146.76,206.42L146.84,232.41L147.41,194.93L147.5,210.96L147.51,214.64L147.57,230.25L147.74,192.71L148.13,222.87L148.14,234.7L148.26,189.34L148.64,238.68L148.9,211.51L148.91,202.95L149.05,234.9L149.51,190.72L149.55,200.13L149.56,189.74L150,237.51L150.31,237.19L150.32,196.8L150.44,237.14L150.91,192.07L151.07,222.05L151.08,221.5L151.41,195.41L151.49,234.65L151.65,219.86L151.66,241.73L151.92,197.96L152.42,205.39L152.43,223.96L153.02,241.09L153.07,198.19L153.19,203.71L153.2,212.65L153.25,187.92L153.48,234.57L153.91,225.02L153.92,197.61L154.44,242.92L154.61,183.14L154.67,211.36L154.68,215.91L154.71,192.6L154.76,235.8L155.43,208.65L155.44,219.75L155.96,244.64L156.2,177.1L156.21,211.81L156.45,194.94L156.88,236.16L156.94,217.08L156.95,202.36L157.09,191.77L157.57,238.07L157.7,223.92L157.71,198.1L157.9,236.92L158.11,191.87L158.47,225.07L158.48,219.87L158.51,200.37L159.01,246.09L159.23,220.85L159.24,214.13L159.32,235.4L159.55,194.54L159.99,209.73L160,226.92L160.14,236.13L160.74,177.67L160.75,200.47L160.76,219.47L161,235.59L161.25,191.79L161.48,212.52L161.49,198.03L161.96,236.44L162.21,190.99L162.24,219.24L162.25,221.32L162.51,188.82L162.66,236.36L162.95,215.87L162.96,199.39L163.23,186.51L163.28,238.68L163.71,220.07L163.72,204.42L163.94,233.33L164.13,155.61L164.37,219.04L164.38,232.87L164.65,198.86L164.7,238.25L165.13,219.98L165.14,219.92L165.44,195.33L165.72,240.12L165.86,218.06L165.87,209.94L165.94,203.58L166.33,235.32L166.52,208.25L166.53,188.44L167.15,236.41L167.28,207.14L167.29,211.29L167.5,244.88L167.6,182.2L167.96,227.63L167.97,238.33L168.19,238.81L168.25,190.52L168.72,212.47L168.73,219.69L168.87,238.72L168.92,195.32L169.41,198.96L169.42,234.04L169.82,236.37L170.15,197.45L170.17,212.69L170.18,225.38L170.19,236.35L170.77,159.92L170.91,224.55L170.92,198.05L171.11,192.15L171.49,241.24L171.67,207.14L171.68,201.74L172,236.8L172.32,156.77L172.43,211.74L172.44,219.05L172.49,237.39L172.78,182.09L173.19,207.79L173.2,207.34L173.52,189.83L173.82,241.18L173.96,220.73L173.97,218.47L174.02,202.81L174.06,246.97L174.1,220.31L174.11,192.9L174.42,163.83L174.51,244.77L174.86,214.17L174.87,216.11L174.92,163.26L175,239.99L175.63,221.16L175.64,218L175.78,238.78L176.12,186.52L176.39,207.74L176.4,212.37L177.05,189.76L177.09,231.57L177.14,214L177.15,198.79L177.32,235.91L177.51,190.96L177.9,219.35L177.91,196.12L178.22,159.53L178.47,234.05L178.67,208.77L178.68,212.42L178.72,233.84L179.06,198.88L179.41,220.76L179.42,200.2L179.73,237.62L180.08,185.48L180.17,215.82L180.18,210.24L180.28,242.8L180.45,194.16L180.91,218.79L180.92,221.95L181,194.45L181.13,248.47L181.55,213.82L181.56,235.36L181.63,237.52L182.07,197.51L182.31,213.76L182.32,222.85L182.37,191.24L182.4,231.31L183.07,209.69L183.08,206.39L183.25,236L183.42,184.93L183.56,212.56L183.57,194.43L183.66,232.74L184.32,213L184.33,220.88L184.83,240.13L184.91,182.07L185.09,209.76L185.1,218.63L185.36,237.75L185.39,195.32L185.83,206.51L185.84,224.13L185.91,165.56L185.98,236.85L186.6,214.56L186.61,209.92L186.64,172.63L187.11,237.51L187.37,228.3L187.38,223.8L187.5,195.34L187.96,236.11L188.11,214.31L188.12,233.66L188.22,192.31L188.87,201.54L188.88,210.16L189.1,183.54L189.59,242.71L189.61,240.05L189.62,204.66L190.02,200.53L190.26,234.59L190.38,223.37L190.39,213.65L190.56,239.45L190.65,185.5L191.13,205.42L191.14,199.3L191.61,240.44L191.64,188.98L191.91,222.96L191.92,201.53L192.02,185.39L192.5,235.56L192.68,215.95L192.69,196.82L193.13,189.99L193.42,235.03L193.44,226.8L193.45,207.89L193.91,231.16L194.15,189.8L194.19,209.52L194.2,200.82L194.36,194.1L194.7,235.43L194.94,204.47L194.95,194.24L195.06,236.49L195.39,173.59L195.71,224.86L195.72,212.27L196.26,195.24L196.43,235.33L196.46,219.52L196.47,223.32L197.08,234.24L197.22,167.96L197.26,168.19L197.27,169.41L197.48,160.67L197.89,228.51L197.91,227.21L197.92,223.26L197.98,238.87L198.29,191L198.68,195.23L198.69,221.18L198.77,228.67L198.83,165.28L199.43,212.12L199.44,221.82L199.62,238.26L200.13,190.23L200.17,215.86L200.18,236.82L200.75,176.9L200.94,198.02L200.95,211.5L201.21,234.05L201.3,178.37L201.7,203.83L201.71,202.02L201.89,187.07L201.95,238.51L202.46,223.07L202.47,213.29L202.53,241.22L202.76,190.4L203.19,211.06L203.2,214.72L203.22,166.03L203.68,232.14L203.91,197.92L203.92,223.21L204.32,234.35L204.44,163.56L204.67,214.57L204.68,209.34L204.98,225.73L205.29,158.07L205.42,187.87L205.43,220L205.47,145.59L205.7,220.86L206.19,171.28L206.2,170.01L206.42,152.74L206.6,200.87L206.95,168.17L206.96,176.14L207.31,154.12L207.66,213.91L207.71,169.5L207.72,180L207.73,156.55L207.99,214.14L208.46,196.17L208.47,196.8L208.5,183.29L208.75,210.68L208.93,188.66L208.94,187.65L209.03,183.45L209.3,211.25L209.69,197.01L209.7,182.99L209.76,181.23L210,215.63L210.45,198.8L210.46,191.54L211.12,207.11L211.18,184.75L211.19,196.79L211.26,186.34L211.93,208.63L211.94,206.53L211.95,192.91L211.98,208.37L212.29,185.85L212.59,194.84L212.6,186.53L212.79,184.93L213.13,207.69L213.35,195.9L213.36,193.13L213.63,221.37L213.64,188.38L214.06,202.76L214.07,194.28L214.53,223.56L214.56,187.84L214.74,198.8L214.75,205.26L215.03,209.56L215.29,184.66L215.48,193.01L215.49,204.77L215.99,206.88L216.17,186.95L216.25,189.47L216.26,195.21L216.49,208.68L216.91,183.19L217.01,202.94L217.02,196L217.27,212.8L217.61,184.41L217.72,194.86L217.73,190.44L217.82,187.19L217.86,210.84L218.5,208.95L218.51,193.79L218.84,207.65L219.12,186.44L219.26,194.96L219.26,192.9L219.55,207.73L219.67,185.51L220.01,197.45L220.02,190.33L220.61,208.21L220.63,183.21L220.75,194.53L220.76,195.5L220.82,183.34L221.06,209.38L221.5,199.28L221.51,190.85L221.73,213.55L221.91,186.03L222.28,202.21L222.29,179.89L222.48,211.55L223.05,196.64L223.06,197.15L223.07,212.72L223.73,178L223.81,207.79L223.82,195.9L223.86,212.43L224.32,185.34L224.54,197.28L224.55,195.97L224.58,212.27L225.05,188.99L225.27,190.01L225.28,209.2L225.32,215.81L225.75,185.19L226.03,193.88L226.04,203.73L226.32,186.01L226.45,207.74L226.7,200.59L226.71,192.9L226.73,187.26L227.33,209.63L227.45,193.08L227.46,192.58L227.56,183.95L227.98,211.09L228.21,192.67L228.22,194.83L228.31,206.57L228.73,185.66L228.96,189.85L228.97,192.9L229.06,210.04L229.29,185.84L229.72,200.5L229.73,193.28L229.78,187.63L230.4,213.41L230.43,203.23L230.44,190.47L231.02,214.46L231.11,185.82L231.2,205.48L231.21,191.97L231.43,212.91L231.76,185.62L231.95,199.36L231.96,187.86L231.97,207.84L232.69,183.53L232.71,200.26L232.72,202.73L233.24,168.15L233.42,213.07L233.47,202.54L233.48,197.61L233.88,227.36L233.97,161.07L234.25,214.72L234.26,202.23L234.44,225.85L234.9,194.06L235.01,216.62L235.02,202.79L235.14,184.97L235.35,237.91L235.77,217.93L235.78,213.69L235.81,190.36L235.82,226.78L236.16,210.8L236.17,191.12L236.61,167.82L236.81,225.7L236.89,211.04L236.9,204.9L236.96,225.78L236.98,201.86L237,204.59L237.01,191.65L237.03,226.3L237.27,182.8L237.76,216.3L237.77,209.16L237.93,189.67L238.38,228.92L238.5,197.46L238.51,225.13L238.56,232.23L238.88,162.8L239.28,199.85L239.29,219.14L239.4,233.63L239.6,190.26L239.76,220.47L239.77,192.37L239.8,166.49L240.44,235.58L240.53,208.8L240.54,192.18L241.15,225.75L241.16,180.86L241.3,213.7L241.31,212.01L241.32,222.48L241.73,190.51L242.05,205.61L242.06,202.44L242.48,184.5L242.54,212.81L242.8,195.42L242.81,200.44L242.83,219.58L243.01,184.45L243.55,185.51L243.56,200.48L244.06,203.61L244.32,174.7L244.33,193.2L244.47,205.72L244.69,157.6L245.1,179.21L245.11,181.4L245.15,173.91L245.24,206.97L245.86,195.18L245.87,187.82L245.88,169.15L246.07,209.82L246.61,197.26L246.62,198.08L246.99,207.75L247.08,184.75L247.34,195.14L247.35,193.16L247.68,183.01L247.81,209.4L248.09,197.91L248.1,186.2L248.5,207.32L248.69,179.94L248.87,203.56L248.88,190.82L248.97,172.89L249.44,207.44L249.63,197.85L249.64,189.16L249.88,185.19L249.91,208.48L250.39,190.89L250.4,193.76L250.42,207.3L250.69,186.64L251.15,202.6L251.16,192.5L251.2,210.74L251.63,183.81L251.86,192.2L251.87,185.4L252.21,214.73L252.62,206.06L252.63,192.01L253.02,210.01L253.33,184.76L253.34,191.64L253.35,185.99L253.82,208.14L254.08,181.7L254.09,185.65L254.1,179.54L254.26,173.83L254.74,208.66L254.88,201.31L254.89,195.19L255.34,212.57L255.45,187.62L255.63,195.76L255.64,194.21L255.72,181.96L256.29,208.2L256.39,199.52L256.4,192.42L256.93,182.13L257.07,211.72L257.15,200.24L257.16,191.21L257.73,188.03L257.9,209.83L257.92,202.97L257.93,193.2L258.1,211.59L258.22,181.34L258.61,197.34L258.62,192.96L258.94,211.34L259,184.84L259.24,188.98L259.25,211.51L259.35,214.04L259.59,184.39L260.01,196.81L260.02,196.68L260.19,208.6L260.52,187.42L260.74,196.39L260.75,186.82L260.84,212.61L260.89,186.49L261.51,199.57L261.52,197.35L261.89,184.99L262.11,211.37L262.27,199.87L262.28,195.57L262.45,210.63L262.87,189.04L263.03,203.36L263.04,190.77L263.33,209.64L263.72,183.78L263.79,196.91L263.8,189.46L264.1,206.02L264.44,176.61L264.54,188.75L264.55,183.76L264.84,208.49L264.9,180.07L264.98,192.94L264.99,211.12L265.72,181.63L265.75,190.26L265.76,189.83L266.27,209.14L266.36,180L266.51,194.16L266.52,188.72L266.96,177.56L266.99,206.67L267.29,199.77L267.3,198.55L267.41,209.38L267.61,186.82L268.04,205.54L268.05,216.6L268.56,181.85L268.8,198.38L268.81,201.61L269.41,212.44L269.57,183.09L269.58,192.64L269.69,171.3L269.91,218.1L270.15,197.82L270.16,215.89L270.37,221.23L270.72,192.21L270.91,202.48L270.92,210.36L271.09,218.34L271.5,189.46L271.66,205.87L271.67,212.46L272.12,215.8L272.17,188.12L272.29,194.75L272.3,211.3L272.4,218.25L272.96,178.06L273.05,194.83L273.06,203.32L273.22,180.74L273.52,213.23L273.78,201.16L273.79,208.79L274.3,215.1L274.48,185.85L274.53,210.41L274.54,208.83L274.94,213.35L275.3,190.11L275.31,208.59L275.69,214.34L275.88,186.6L276.07,190.85L276.08,204.24L276.36,184.16L276.56,215.92L276.83,201.66L276.84,219.32L277.25,187.94L277.6,200.5L277.61,197.53L278.03,179.76L278.11,217.87L278.37,207.42L278.38,194.72L278.95,189.73L279.14,216.8L279.15,209.26L279.18,190.63L279.23,215.48L279.87,208.37L279.88,212.81L279.89,214.71L280.33,187.13L280.52,206.16L280.53,192.45L280.69,182.12L281.12,218.2L281.29,210.33L281.3,208.11L281.64,191.87L281.94,220.09L281.98,205.13L281.99,197.24L282.11,185.16L282.33,214.46L282.74,198.36L282.75,199.49L282.96,219.61L283.37,176.37L283.48,212.33L283.49,190.78L283.71,213.42L284.15,172.78L284.25,202.66L284.26,206.83L284.79,186.02L284.82,214.72L284.99,201.95L285,205.31L285.16,215.04L285.61,190.42L285.75,205.73L285.76,192.64L285.97,213.32L286.31,187.34L286.5,209.86L286.51,188.89L286.6,182.84L286.89,211.76L287.28,205.77L287.29,199.94L287.73,216.43L287.9,189.37L288.04,189.93L288.05,201.16L288.18,212.51L288.45,177.66L288.8,193.89L288.81,198.01L288.85,180.65L288.97,214.88L289.56,201.4L289.57,199.83L289.8,219.41L290.22,192.29L290.32,204.9L290.33,201.06L290.53,221.22L290.93,185.76L291.08,209.75L291.09,207.22L291.38,189.66L291.56,216.72L291.82,207.5L291.83,215.88L292.04,168.33L292.59,188.87L292.6,182.29L292.86,204.91L292.87,172.95L293.4,192.06L293.41,177.1L293.75,169.09L293.91,200.63L294.16,190.84L294.17,188.15L294.32,202.17L294.76,173.47L294.92,182.97L294.93,184.54L294.94,172.33L295.66,199.19L295.67,182.67L295.68,186.45L296.03,201.15L296.17,171.24L296.43,177.94L296.44,179.9L296.56,171.22L296.64,195.45L296.89,175.01L296.9,199.19L296.97,200.27L297.48,169.98L297.66,182.13L297.67,176.84L297.74,174.7L298.1,207.78L298.42,193.2L298.43,192.89L298.61,207.95L299.04,186.26L299.18,198.45L299.19,194.51L299.48,204.21L299.94,185.4L299.95,185.44L299.96,194.24L299.97,210.8L300.16,179L300.7,192.69L300.71,192.63L301.06,186.89L301.4,214.03L301.44,193.28L301.45,192.86L301.54,182.76L301.75,216.98L302.21,205.2L302.22,190.32L302.38,207.64L302.61,184L302.97,197.86L302.98,190.56L303.23,205.73L303.61,178.73L303.73,195.81L303.74,195.3L303.83,210.03L304.02,186.5L304.48,195.37L304.49,192.27L304.82,184.25L305.19,213.15L305.25,200.89L305.26,185.26L305.32,180.54L305.69,205.11L306.03,196.46L306.04,186.73L306.32,181.94L306.74,206.25L306.8,195.12L306.81,199.03L306.82,213.28L307.4,174.58L307.55,196.7L307.56,197.92L307.59,207.32L307.74,187.06L308.01,196.86L308.02,189.51L308.12,211.73L308.49,184.53L308.76,196.7L308.77,192.21L309.16,212.82L309.22,183.16L309.47,196.23L309.48,193.9L310.01,226.87L310.15,186L310.23,203.38L310.24,193.4L310.54,208.15L310.59,180.05L310.99,192.16L311,204.68L311.27,211.51L311.64,184.13L311.75,191.95L311.76,200.13L312.19,182.29L312.29,209.21L312.43,203.07L312.44,190.11L312.47,205.9L312.78,181.92L313.17,191.83L313.18,182.93L313.61,207.19L313.93,194.83L313.94,189.51L314.1,212.33L314.55,180.55L314.7,196.16L314.71,191.59L314.72,218.41L315.29,183.04L315.45,191.95L315.46,183.38L315.68,210.22L315.69,171.21L316.22,199.31L316.23,189.5L316.42,210.11L316.8,183.43L316.97,189.61L316.98,186.67L317.44,208.71L317.47,183.99L317.73,194.54L317.74,195.81L318.31,227.38L318.42,179.87L318.43,199.14L318.44,224.11L318.61,178.66L319.19,207.75L319.2,210.21L319.33,188.62L319.35,214.04L319.72,201.25L319.73,217.59L319.74,184.13L320.46,219.35L320.48,197.36L320.49,194.4L320.98,190.09L321.08,223.48L321.24,200.74L321.25,205.23L321.84,216.55L321.94,186.01L322,199.01L322.01,206.79L322.19,173.05L322.48,223.91L322.76,197.75L322.77,203.97L323.3,186.01L323.4,214.39L323.51,206.51L323.52,193.9L323.82,212.42L323.97,187.97L324.27,200.73L324.28,201.06L324.37,213L324.94,187.16L324.99,211.09L325,193.03L325.25,214.87L325.29,188.65L325.3,180.59L325.38,216.96L326.06,197.03L326.07,194.98L326.24,212.94L326.25,190.12L326.82,205.64L326.83,198.37L326.86,217.3L326.9,186.97L327.58,205.32L327.59,205.11L327.86,214.41L327.93,188.87L328.32,207.89L328.33,182.95L328.63,214.61L329.1,206.78L329.11,196.01L329.22,215.77L329.82,183.17L329.86,200.49L329.87,204.31L329.93,181.49L330.15,222.4L330.63,191.15L330.64,211.45L330.74,216.15L331.07,182.41L331.39,206.68L331.4,205.54L331.71,215.21L332.08,186.72L332.16,194.15L332.17,209.67L332.21,214.99L332.41,185.24L332.92,195.76L332.93,197.89L333.25,213.89L333.51,171.46L333.66,212.98L333.67,195.28L333.73,181.47L334.37,213.81L334.42,203.31L334.43,188.78L334.48,213.83L334.96,185.7L335.19,200.18L335.2,190.5L335.27,186.86L335.45,219.12L335.95,204.43L335.96,203.63L336.12,217.87L336.34,189.96L336.71,206.34L336.72,204.23L336.99,216.71L337.33,188.64L337.46,205.12L337.47,206.39L337.59,188.99L338.12,213.03L338.18,194.99L338.19,196.71L338.32,219.46L338.81,185.58L338.93,212.96L338.94,195.28L339.02,162.74L339.27,215.46L339.7,207.95L339.71,205.66L339.82,216.48L339.87,181.77L340.45,188.96L340.46,206.22L340.74,188.97L340.87,215.52L341.21,204.39L341.22,202.25L341.23,183.93L341.52,218.13L341.97,190.72L341.98,201.59L342.43,177.84L342.47,215.43L342.71,203.07L342.72,203.24L342.86,190.47L343.26,217.79L343.47,202.18L343.48,208.75L344.03,226.28L344.19,182.8L344.22,211.74L344.23,224.04L344.34,228.76L344.47,181.72L344.99,200.77L345,206.79L345.03,222.11L345.66,176.19L345.67,190.34L345.68,212.02L345.91,216.53L346.23,178.62L346.46,191.27L346.47,212.08L346.6,181.66L347.05,217.51L347.23,183.48L347.24,210.3L347.66,180.68L347.72,217.62L347.95,206.89L347.96,198.71L348,219.89L348.36,178.39L348.71,208.44L348.72,208.77L349.14,218.16L349.38,184.47L349.43,199L349.44,195.17L349.51,190.2L349.61,215.97L350.21,215.24L350.22,193.71L350.26,187.03L350.33,220.69L350.98,206.29L350.99,184.65L351.17,213.82L351.74,200.96L351.75,197.14L352.13,184.65L352.21,219.95L352.49,204.4L352.5,199.98L352.86,187.96L353.19,217.41L353.24,211.98L353.25,191.4L353.69,213.58L353.85,154.41L354.01,211.65L354.02,197.1L354.18,185.74L354.5,212.95L354.61,196.57L354.62,210.49L354.95,222.2L355.38,192L355.39,210.9L355.71,220.63L356.05,176.73L356.14,197.29L356.15,208.79L356.22,217.76L356.24,188.45L356.91,198.33L356.92,206.94L357.05,218.85L357.41,192.96L357.66,212.35L357.67,210.1L357.7,143.56L357.73,225.06L358.39,207.65L358.4,193.79L359.01,217.54L359.11,186.04L359.16,208.03L359.17,210.86L359.62,187.68L359.81,218.63L359.94,200.73L359.95,199.85L360.28,186.57L360.39,217.61L360.7,202.55L360.71,205.47L360.79,213.42L361.19,180.52L361.44,202.89L361.45,191.86L361.8,218.39L362.06,180.02L362.2,201.13L362.21,196.14L362.59,217.11L362.89,175.21L362.95,201.07L362.96,203.12L363.07,221.65L363.33,186.68L363.65,205.74L363.66,205.59L363.99,218.77L364.22,189.82L364.4,205.1L364.41,211.27L364.62,214.52L364.76,180.68L365.16,197.3L365.17,204.97L365.31,177.85L365.53,216.91L365.83,199.3L365.84,209.64L366.16,180.43L366.44,214.06L366.56,197.09L366.57,209.77L366.94,181.92L366.97,216.72L367.32,199.2L367.33,210.25L367.71,182.39L367.78,225.14L368.08,201.04L368.09,203.48L368.32,193.03L368.72,217.66L368.84,212.94L368.85,204.51L368.99,217.8L369.56,194.8L369.6,197.71L369.61,206.76L369.82,188.91L370.12,217.49L370.36,200.9L370.37,204.96L370.65,179.37L370.84,215.69L371.11,206.57L371.12,216.71L371.27,185L371.37,217.3L371.89,190.14L371.9,199.03L372.04,186.18L372.32,213.98L372.65,197.47L372.66,202.28L373.14,188.09L373.22,221.16L373.31,204.78L373.32,216.87L373.35,226.95L373.76,192.7L374.05,209.25L374.06,209.61L374.28,224.42L374.37,143.65L374.8,212.73L374.81,215.07L374.83,221.56L375.02,191.68L375.09,205.94L375.1,192.66L375.12,216.78L375.21,185.04L375.85,208.84L375.86,190.61L375.97,214.88L376.51,189.49L376.62,199.92L376.63,199.26L376.74,184.34L377.03,218.17L377.38,205.04L377.39,209.05L377.42,217.09L377.6,184.12L378.16,197.23L378.17,212.79L378.34,184.67L378.79,215.2L378.9,197.57L378.91,210.04L379.2,215.96L379.46,184.24L379.67,196.79L379.68,192.95L380.03,212.15L380.38,182.49L380.43,203.49L380.44,200.58L380.67,219.22L380.92,174.54L381.2,193.64L381.21,205.07L381.38,184.51L381.78,226.8L381.96,215.75L381.97,209.76L382.09,194.44L382.44,228.23L382.71,220.28L382.72,204.77L382.84,222.68L383.04,180.58L383.44,199.65L383.45,174.67L384.11,215.31L384.21,204.21L384.22,196.55L384.3,217.26L384.66,186.85L384.96,203.51L384.97,191.72L385.49,182.54L385.7,212.34L385.73,206.51L385.74,202.48L386.22,186.22L386.26,220.22L386.48,206.99L386.49,213.62L386.66,215.61L386.94,188.17L387.25,193.6L387.26,198.94L387.34,190.66L387.49,216.27L387.98,207.89L387.99,206.09L388.02,189.35L388.2,213.18L388.73,204.22L388.74,206.68L388.92,217.59L388.96,192.15L389.47,195.83L389.48,210.54L389.57,215.13L389.94,182.23L390.23,204.33L390.24,205.26L390.43,218.47L390.69,183.58L390.97,196.61L390.98,196.62L391.28,181.65L391.65,215.77L391.71,202.01L391.72,194.04L391.77,187.71L392.22,215.56L392.47,202.95L392.48,202.35L392.75,162.83L393.15,213.47L393.21,199.42L393.22,194.31L393.57,191.06L393.81,219L393.97,211.91L393.98,196.39L394.39,184.04L394.55,221.14L394.74,206.64L394.75,200.65L395.09,189.51L395.16,221.52L395.5,205.99L395.51,195.22L395.54,211.92L395.56,189.84L396.26,203.09L396.27,199.43L396.37,218.08L396.83,189.55L397.02,201.07L397.03,202.19L397.06,193.63L397.65,220.31L397.73,195.1L397.74,187L397.77,215.5L398.48,200.45L398.49,200.23L398.75,217.16L399,193.47L399.22,213.03L399.23,198.08L399.26,191.22L399.88,217.4L399.98,204L399.99,198.03L400.06,210.36L400.62,177.65L400.73,197.8L400.74,192.12L401.03,214.16L401.23,177.99L401.49,194.45L401.5,195.4L401.54,183.21L401.56,217.7L401.77,198.78L401.78,190.5L401.98,214.27L402.31,182.46L402.53,200.24L402.54,197.43L402.61,173.37L402.98,216.4L403.28,201.74L403.29,193.13L403.66,218.19L403.97,178.94L404.05,201.79L404.06,189.57L404.13,212.25L404.48,182.98L404.82,204.78L404.83,208.77L405.23,182.62L405.47,212.88L405.59,194.77L405.6,210.09L405.84,184.45L406.13,216.64L406.35,190.46L406.36,206.39L406.53,219.61L407.02,188.69L407.1,209.24L407.11,208.35L407.14,217.89L407.58,180.03L407.66,211.24L407.67,214.65L408.12,188.24L408.44,191.69L408.45,198.69L408.52,218.68L408.7,177.49L409.18,194.98L409.19,187.4L409.35,182.76L409.48,216.79L409.9,191.39L409.91,183.39L410.35,181.9L410.55,209.55L410.66,195.52L410.67,198.03L410.7,178.39L411.02,213.49L411.43,210.6L411.44,201.24L411.8,212.98L411.95,190.71L411.97,207.78L411.98,216.14L412.77,189.63L412.78,194.19L413.31,215.33L413.43,175.99L413.52,198.2L413.53,191.84L413.95,181.16L414.02,208.35L414.27,191.2L414.28,197.56L414.41,215.76L414.52,182.25L415.02,196.64L415.03,198.92L415.22,181.69L415.6,219.77L415.69,207.1L415.7,212.77L415.81,223.15L416.1,188.36L416.42,213.63L416.43,222.4L416.49,225.1L417.13,185.43L417.18,197.29L417.19,212.59L417.66,225.32L417.73,184.72L417.92,217.11L417.93,195.78L417.99,223.35L418.28,181.43L418.68,204.68L418.69,195.92L418.78,212.11L419.05,177.22L419.44,197.98L419.45,197.01L419.51,210.8L419.56,185.72L420.18,199.88L420.19,202.9L420.25,187.42L420.78,216.53L420.93,200.96L420.94,198.95L421.16,190.15L421.42,217.67L421.65,198.74L421.66,213.87L422.06,217.86L422.34,189.28L422.41,202.9L422.42,208.21L422.71,192.01L422.84,221.14L423.18,200.73L423.19,203.28L423.5,182.08L423.66,217.1L423.87,196.2L423.88,209.81L424.4,178.08L424.54,226.78L424.57,207.43L424.58,223.75L424.81,201.76L424.98,232.54L425.04,210.1L425.05,206.37L425.22,172.5L425.29,231.69L425.81,214.21L425.82,214.17L426.11,228.47L426.42,174.47L426.51,193.81L426.52,182.36L427.08,218.37L427.29,203.16L427.3,201.29L427.47,184.58L427.57,216.57L428.01,195.32L428.02,206.25L428.24,185.1L428.41,212.62L428.49,193.87L428.5,209.18L428.54,192.71L429.23,217.09L429.24,215.05L429.41,218.74L429.66,191.92L430,198.48L430.01,205.38L430.41,180.35L430.58,214.7L430.76,196.32L430.77,201.97L431.01,182.53L431.26,217.76L431.51,206.21L431.52,204.01L431.66,187.94L431.88,213.63L432.26,204.59L432.27,207.93L432.75,221.02L432.84,183.9L432.99,193.46L433,184.16L433.04,174.18L433.58,212.49L433.75,192.61L433.76,201.49L433.89,180.67L434.11,210.01L434.47,191.51L434.48,187.25L434.61,166.91L435.04,218.73L435.23,193.21L435.24,200.02L435.5,212.52L435.87,185.05L435.95,198.02L435.96,225.34L436.7,157L436.82,188.22L436.83,196.38L437.37,173.9L437.51,210.5L437.57,186.59L437.58,201.28L437.87,183.19L438.24,212.14L438.33,200.46L438.34,204.24L438.86,214.26L438.94,176.56L439.08,190.62L439.09,207.59L439.25,168.2L439.42,217.91L439.87,193.22L439.88,208.11L440.09,212.62L440.26,179.54L440.61,204.36L440.62,205.75L440.64,184.3L440.77,217.8L441.35,206.4L441.36,190.54L441.71,189.59L442.06,215.67L442.1,197.17L442.11,189.15L442.35,222.64L442.67,181.83L442.88,209.01L442.89,207.04L443.02,190.03L443.64,215.63L443.65,204.98L443.81,195.05L443.88,216.62L444.39,203.96L444.4,203.21L444.68,218.43L444.75,191.45L445.14,205.64L445.15,180.78L445.38,215.54L445.9,199.04L445.91,195.4L446.13,191.09L446.14,218.1L446.66,200.93L446.67,202.4L446.98,183.8L447.13,214.85L447.4,205.36L447.41,196.13L447.71,185.04L448.19,223.25L448.2,200.77L448.27,221.13L448.7,181.29L448.94,197.92L448.95,198.74L449.11,177.32L449.65,209.16L449.69,196.42L449.7,201.16L449.9,181.59L449.94,208.57L450.04,199.23L450.05,205.79L450.4,186.94L450.74,213.51L450.79,208.65L450.8,199.13L450.83,223.97L451.09,179.73L451.46,220.59L451.47,185.43L451.66,169.74L451.88,233.54L452.22,201.19L452.23,212.07L452.35,224.31L452.42,182.75L452.95,198.68L452.96,199.03L453.36,208.61L453.51,185.14L453.71,193.72L453.72,194.91L453.88,190.22L454.38,204.97L454.43,191.56L454.44,200.75L454.83,205.94L454.95,186.44L455.16,198.81L455.17,208.7L455.58,190.48L455.92,193.7L455.93,197.91L456.13,211.88L456.6,187.64L456.68,201.68L456.69,202.84L456.71,207.74L457.1,186.53L457.44,193.84L457.45,200.46L457.99,212.97L458,181.19L458.19,191.47L458.2,200.83L458.4,185.57L458.94,208.34L458.95,195.38L458.96,195.11L459.04,207.31L459.12,184.52L459.37,196.13L459.38,188.7L459.58,210.35L459.88,183.41L460.14,203.06L460.15,188.99L460.31,187.21L460.52,210.46L460.91,200.63L460.92,202.63L461.14,209.8L461.36,182.25L461.67,189.86L461.68,200.81L461.87,209.54L462.42,171.29L462.47,181.54L462.48,180.41L463.06,170.95L463.16,205.48L463.23,204.94L463.24,182.37L463.38,199.36L463.95,172.26L463.98,180.22L463.99,179.27L464.07,172.13L464.25,205.16L464.74,185.17L464.75,184.01L465.38,175L465.47,201.86L465.5,184.85L465.51,180.88L465.69,204.39L465.72,172.59L466.04,179.19L466.05,176.57L466.08,172.96L466.19,202.83L466.8,183.68L466.81,175.01L467.08,199.82L467.14,173.81L467.57,186.43L467.58,182.57L467.9,202.99L468.05,175.96L468.33,184.05L468.34,186L468.7,172.11L468.95,206.45L469.06,184.74L469.07,196.68L469.12,198.99L469.48,173.17L469.81,189.48L469.82,200.6L470.28,202.63L470.38,174.72L470.57,187.44L470.58,196.02L470.87,171.22L471.23,197.76L471.32,181.34L471.33,199.31L471.55,172.55L471.92,206.8L472.08,176.92L472.09,190.63L472.26,171.72L472.62,202.29L472.74,184.33L472.75,200.39L472.77,172.05L473.43,221.15L473.5,194.19L473.51,187.18L473.53,178.43L474.11,212.57L474.26,200.44L474.27,182.2L474.49,220.34L474.68,178.77L475.03,193.94L475.04,192.4L475.24,178.05L475.5,212.05L475.77,193.23L475.78,199.47L475.86,172.35L475.98,211.7L476.53,178.52L476.54,198.1L476.56,206.3L476.93,171.47L477.27,188.6L477.28,189.36L477.43,172.03L477.75,202.85L478.02,190.53L478.03,183.75L478.53,170.97L478.56,200.04L478.78,196.77L478.79,183.13L479.12,170.56L479.37,201.28L479.51,173.57L479.52,192L479.58,206.44L479.64,176.39L480.03,198.98L480.04,180.25L480.13,174.54L480.22,202.62L480.79,189.17L480.8,182.24L480.82,200.58L481.22,171.84L481.48,185.53L481.49,172.91L481.9,171.85L481.93,202.77L482.25,192.84L482.26,186.9L482.56,197.35L482.9,169.53L482.98,182.07L482.99,189.51L483.44,175.8L483.53,207.7L483.72,201.45L483.73,197.64L484.02,207.72L484.19,180.23L484.49,183.92L484.5,190.02L484.66,173.98L484.75,209.31L485.22,195.26L485.23,204L485.38,181.23L485.71,209.04L485.99,192.9L486,197.09L486.17,210.11L486.41,184.15L486.74,199.61L486.75,194.54L486.85,189.25L486.89,209.25L487.09,197.67L487.1,214.48L487.67,186.26L487.87,194.93L487.88,199.58L488.08,184.68L488.21,210.74L488.62,202.77L488.63,194.5L488.64,209.11L489.29,185.66L489.38,198.66L489.39,197.92L489.73,182.14L489.85,212.36L490.14,202.9L490.15,190.08L490.24,209.23L490.72,182.38L490.9,199.7L490.91,203.12L491.04,184.97L491.64,206.53L491.65,192.12L491.66,210.93L491.73,172.03L492.11,212.3L492.41,197.51L492.42,207.52L492.74,182.39L492.88,209.11L493.17,195.73L493.18,195.82L493.54,185.62L493.69,213.93L493.76,197.85L493.77,217.56L494.04,178.45L494.54,186.09L494.55,188.17L494.81,177.29L495.31,208.55L495.32,192.57L495.57,210.45L495.96,175.07L496.04,187.14L496.05,172.96L496.75,197.12L496.8,186.98L496.81,182.02L497.17,172.35L497.43,200.85L497.54,186.92L497.55,173.93L497.66,202.77L497.86,172.23L498.31,191.74L498.32,184.84L498.53,205.95L498.75,173.27L499,178.34" style="vector-effect: non-scaling-stroke; fill: none; stroke: rgb(99, 110, 250); stroke-opacity: 1; stroke-width: 2px; opacity: 1;"/></g><g class="points"/><g class="text"/></g><g class="trace scatter tracec0b0f9" style="stroke-miterlimit: 2; opacity: 1;"><g class="fills"/><g class="errorbars"/><g class="lines"><path class="js-line" d="M0,304L0.68,126.39L0.78,127.73L0.79,129.58L0.85,140.77L1.41,102.62L1.45,110.6L1.46,107.25L1.55,113.31L1.64,85.25L2.17,98.45L2.18,92.17L2.22,105.76L2.75,73.82L2.84,77.17L2.85,71.16L2.87,66.21L2.89,75.28L2.97,68.18L2.98,60.88L3.58,59.4L3.66,79.34L3.73,66L3.74,62.93L3.99,50.36L4.19,76.98L4.48,60.55L4.49,62.88L4.76,77.13L5.13,51.56L5.25,55.57L5.26,63.78L6.02,43.37L6.03,43.26L6.16,58.27L6.73,37.49L6.78,46.43L6.79,49.01L6.96,56.36L7.44,33.83L7.49,43.67L7.5,39.15L7.59,56.7L8.12,34.78L8.26,45.41L8.27,40.33L8.86,34.59L8.98,53.09L9.02,48.16L9.03,43.73L9.24,37.78L9.37,53.68L9.79,47.72L9.8,45.92L9.87,53.27L10.47,36.68L10.55,46.63L10.56,43.39L10.58,37.43L11.26,58.03L11.32,48.58L11.33,46.5L11.44,55.73L11.98,40L12.08,46.79L12.09,43.19L12.31,34.38L12.67,51.62L12.82,44.58L12.83,49.71L12.88,54.18L13.21,38.47L13.5,45.95L13.51,40.67L13.79,57.19L14.1,38.41L14.26,48.65L14.27,45.43L14.4,38.8L14.57,56.55L15.02,42.47L15.03,47.36L15.29,57.53L15.62,39.21L15.77,48.99L15.78,43.88L16.02,51.85L16.49,32.31L16.54,38.43L16.55,39.19L16.6,34.24L16.81,50.67L17.05,46.12L17.06,47.59L17.23,35.44L17.62,50.52L17.81,40.33L17.82,42.37L18.13,30.02L18.46,48.6L18.57,46.85L18.58,39.08L18.65,36.1L18.77,55.1L19.35,51.8L19.36,49.86L19.75,31.56L19.99,52.65L20.12,37.95L20.13,46.61L20.35,31.84L20.55,33.59L20.56,43.38L21.03,30.82L21.09,45.1L21.32,35.4L21.33,33.82L21.48,47.55L21.96,28.33L22.07,36.03L22.08,33.61L22.48,26.52L22.71,44.01L22.84,39.37L22.85,37.92L23.33,45.23L23.51,27.65L23.55,33.24L23.56,29.63L24.01,44.99L24.31,37.12L24.32,38.86L24.34,40.23L24.5,26.57L24.87,36.35L24.88,27.33L25.13,46.89L25.66,43.86L25.67,38.68L25.9,46.87L26.08,27.39L26.37,34.24L26.38,30.73L26.42,27.19L27,41.82L27.03,41.21L27.04,26.88L27.1,45.4L27.8,41.34L27.81,38.42L27.99,44.18L28.03,31.8L28.56,37.8L28.57,37.12L28.78,30.3L28.79,46.49L29.31,37.25L29.32,38.93L29.75,46.69L29.77,31.42L30.07,36.92L30.08,40.61L30.1,44.99L30.37,30.24L30.84,36.86L30.85,35.61L31.15,28.53L31.48,42.37L31.6,37.35L31.61,33.23L31.94,48.08L32.3,29.46L32.36,42.93L32.37,33.01L32.63,45.73L33.06,30.33L33.13,39.24L33.14,41.03L33.33,30.82L33.85,43.64L33.89,40.57L33.9,38.62L34.03,46.3L34.58,32.35L34.65,38.77L34.66,37.18L34.89,27.62L35.16,42.34L35.41,29.85L35.42,36.08L35.84,44.17L36.11,27.18L36.17,32.96L36.18,40.43L36.24,25.79L36.26,42.84L36.93,34.43L36.94,34.29L37.28,28.32L37.57,43.54L37.68,43.01L37.69,35.26L37.79,40.15L38.19,26.48L38.43,31.28L38.44,32.43L38.87,41.89L39.14,26.81L39.18,32.95L39.19,36.36L39.27,29.57L39.54,45.69L39.78,34.25L39.79,38.55L40,29.41L40.27,44.56L40.52,39.21L40.53,34.42L40.79,31.02L40.92,46.22L41.25,38.59L41.26,29.8L41.33,29.19L41.58,49.99L42.02,41.74L42.03,43.98L42.06,30.09L42.27,48.05L42.78,39.67L42.79,39.53L42.85,31.68L43.26,46.54L43.51,39.63L43.52,30.67L43.87,43.37L44.28,42.25L44.29,38.62L44.45,46.22L44.97,31.13L45.04,39.26L45.05,38.64L45.14,50.34L45.65,32.05L45.77,38.15L45.78,42.51L46.14,27.57L46.5,45.76L46.53,40.67L46.54,40.01L47.04,30.64L47.14,46.99L47.29,34.33L47.3,42.09L47.51,45.3L47.74,32.68L48.01,43.5L48.02,35.52L48.22,28.89L48.51,48.72L48.78,42.85L48.79,40.6L48.9,47.65L49.11,33.58L49.53,40.17L49.54,37.91L49.78,48.72L49.98,34.12L50.21,39.47L50.22,48.79L50.53,50.1L50.82,32.54L50.97,39.54L50.98,45.32L51.28,35.45L51.35,51.94L51.73,39.12L51.74,39.95L51.77,34.45L52.03,48.6L52.38,43.28L52.39,45.37L52.53,51.6L52.88,35.8L53.14,38.84L53.15,42.44L53.37,46.51L53.8,30.33L53.89,42.7L53.9,38L53.95,46.76L54.37,29.95L54.62,38.26L54.63,39.5L54.76,45.23L54.88,28.22L55.37,39.39L55.38,45.42L55.4,33.21L55.48,46.26L56.11,39.1L56.12,41.06L56.14,44.45L56.16,28.64L56.84,40.5L56.85,35.89L57.12,42.83L57.43,24.23L57.58,35.14L57.59,39.95L57.67,42.93L57.8,27.51L58.35,30.15L58.36,32.63L58.91,25.15L58.96,40.49L59.08,32.3L59.09,37.31L59.47,37.72L59.7,25.99L59.84,34.3L59.85,34.14L60.06,40.57L60.17,25.95L60.29,28.2L60.3,36.4L60.47,40.12L60.53,27.87L61.02,34.12L61.03,37.62L61.06,42.68L61.36,28.37L61.76,34.96L61.77,45.54L61.86,29.51L62.52,36.07L62.53,40L62.87,29.54L63.04,43.21L63.29,32.72L63.3,35.41L63.66,27.8L64.02,43.6L64.07,40.41L64.08,36.24L64.23,45.81L64.36,33.28L64.83,37.35L64.84,37.35L65.02,44.71L65.52,30.3L65.57,39.95L65.58,38.97L65.81,43.1L66.34,26.12L66.35,34.58L66.58,30.34L66.59,42.98L66.93,35.47L66.94,30.43L67.34,42.73L67.46,24.6L67.69,35.45L67.7,33.84L67.77,41.1L68.33,27.73L68.43,35.23L68.44,29.5L68.91,28.08L69.08,42.26L69.13,32.66L69.14,40.09L69.46,44.05L69.55,29.84L69.89,31.15L69.9,37.71L70,44.69L70.29,30.21L70.65,40.66L70.66,35.16L71.1,45.33L71.21,31.41L71.3,35.33L71.31,41L71.47,30.55L71.87,44.62L72.06,35.84L72.07,38.21L72.14,45.67L72.27,32.36L72.81,40.28L72.82,35.46L72.91,43.8L73.45,31.84L73.59,41.65L73.6,36.55L73.89,30.03L73.91,43.93L74.34,40.56L74.35,34.74L74.44,27.22L75.04,45.98L75.1,37.69L75.11,34.73L75.59,26.26L75.85,41.96L75.87,36.42L75.88,36.89L76.27,44L76.34,30.96L76.62,40.68L76.63,35.08L77.15,28.77L77.28,45.07L77.39,38.95L77.4,38.54L77.64,47.65L77.81,31.43L78.13,36.12L78.14,42.59L78.42,44.33L78.86,26.98L78.9,35.12L78.91,37.09L79.14,42.62L79.4,26.05L79.63,41.28L79.64,34.18L80.24,30.93L80.3,45.36L80.4,40.1L80.41,35.69L80.47,28.49L80.72,44.11L81.18,39.85L81.19,38.28L81.44,32.88L81.49,48.61L81.69,42.33L81.7,33.61L82.11,42.9L82.3,29.24L82.45,36.14L82.46,36.36L82.84,44.52L83.01,31.16L83.2,38.4L83.21,33.8L83.93,44.56L83.95,30.34L83.96,40.35L83.97,32.12L84.25,42.38L84.33,22.12L84.71,32.86L84.72,30.29L85.27,45.09L85.37,29.23L85.47,39.61L85.48,36.38L86.04,30.68L86.1,44.45L86.23,38.28L86.24,35.17L86.54,29.44L86.61,44.12L86.94,32.7L86.95,41.19L87.47,30.56L87.68,43.19L87.69,38.08L87.7,43.26L88.1,31.28L88.42,46.08L88.45,36.15L88.46,40.86L88.82,44.71L88.89,31.07L89.21,43.12L89.22,37.69L89.5,45.17L89.7,32.22L89.97,38.18L89.98,33.43L90.05,41.08L90.49,28.05L90.71,34.56L90.72,30.25L91.11,27.49L91.37,41.63L91.46,31.36L91.47,27.81L91.79,26.79L91.89,43.92L92.22,29.8L92.23,34.56L92.5,26.15L92.87,43.46L92.96,37.33L92.97,39.29L93.1,27.32L93.5,42.07L93.73,35.06L93.74,36.05L93.75,27.62L94.46,47.11L94.48,36.5L94.49,40.53L94.86,45.22L95.14,30.16L95.26,33.22L95.27,37.66L95.48,30.72L95.97,44.89L96.01,39.46L96.02,37.5L96.2,45.74L96.34,34.12L96.77,45.17L96.78,39.12L97,46.58L97.5,30.53L97.52,36.49L97.53,40.51L97.77,29.13L98.09,41.06L98.27,40.35L98.28,41.27L98.71,30.25L99.03,38.24L99.04,39.23L99.42,31.59L99.53,43.58L99.8,36.57L99.81,37.26L100,30.67L100.32,43.77L100.53,36.46L100.54,43.43L100.55,43.73L100.67,32.62L100.99,40.99L101,32.39L101.32,32.12L101.33,46.51L101.75,38.28L101.76,35.58L102.37,43.47L102.47,28.34L102.51,40.11L102.52,30.08L102.66,40.57L103.21,27.2L103.27,32.24L103.28,28.32L103.38,38.05L103.69,25.31L103.96,32.49L103.97,28.84L104.07,23.48L104.45,38.5L104.61,30.31L104.62,27.52L104.72,37.53L104.97,23.29L105.39,36.64L105.4,31.02L105.53,37.72L106.03,27.66L106.15,34.96L106.16,31.54L106.24,35.79L106.34,25.05L106.51,31.31L106.52,24.96L106.93,41.04L107.29,35.92L107.3,34.91L107.48,25.47L107.94,42.9L108.04,39.15L108.05,34.61L108.12,28.78L108.32,44.06L108.78,36.36L108.79,42.22L108.88,32.96L109.34,44.28L109.55,36.49L109.56,38.16L109.57,32.61L109.61,44.53L110.31,37.37L110.32,41.66L110.72,30.97L111.01,43.88L111.06,38.97L111.07,44.35L111.08,33.73L111.77,48.19L111.82,39.68L111.83,38.07L112.45,33.86L112.5,44.36L112.57,41.55L112.58,35.38L112.67,42.74L113.09,26.88L113.33,36.35L113.34,38.55L113.86,43.58L113.93,28.92L114.12,29.84L114.13,36.73L114.64,27.28L114.73,41.6L114.89,31.11L114.9,31.09L114.92,28.72L115.35,42.05L115.65,30.48L115.66,29.25L116.21,25.17L116.34,42.26L116.41,36.69L116.42,34.05L116.76,43.48L117.11,29.71L117.16,35.17L117.17,31.3L117.43,39.24L117.55,26.76L117.92,33.26L117.93,29.06L117.96,23.58L118.66,38.19L118.69,36.27L118.7,32.9L118.93,39.34L118.97,25.74L119.43,32.09L119.44,28.31L119.87,21.02L120.17,39.78L120.19,38.86L120.2,30.71L120.54,41.92L120.81,23.31L120.95,35.52L120.96,31.55L121.1,23.56L121.37,41.34L121.67,32.51L121.68,37.42L121.91,27.07L122.02,40.02L122.44,34.57L122.45,32.34L122.48,42.51L123,23.41L123.19,32.45L123.2,34.74L123.67,43.5L123.91,25.03L123.94,29.9L123.95,33.76L124.13,40.2L124.61,22.36L124.71,26.44L124.72,35.93L125.09,22.12L125.37,37.89L125.47,28.56L125.48,33.07L126.09,37.8L126.25,24.29L126.26,23.35L126.6,36.58L126.67,22.34L127.03,34.85L127.04,29.87L127.07,38.69L127.14,28.81L127.28,35.33L127.29,29.69L127.46,40.3L127.47,22.41L128.03,29.98L128.04,26.77L128.08,26.36L128.41,37.19L128.8,32.73L128.81,33.08L129.23,39.94L129.36,25.04L129.4,33.02L129.41,36.01L129.45,38.75L129.59,24.88L130.16,33.54L130.17,34.96L130.36,39.89L130.42,29.14L130.43,29.27L130.44,24.34L131.04,38.56L131.17,23.1L131.19,32.1L131.2,28.85L131.43,38.1L131.76,26.08L131.93,28.26L131.94,26.47L132.14,23.03L132.51,44.67L132.69,31.41L132.7,32.92L133.14,24.97L133.31,41.46L133.43,32.64L133.44,28.77L133.6,38.15L133.65,25.33L134.19,31.24L134.2,27.76L134.39,37.23L134.86,21.33L134.9,27.08L134.91,33.65L134.97,22.85L135.42,37.43L135.67,29.67L135.68,32.05L136.02,21.16L136.15,38.77L136.42,26.11L136.43,34.14L136.7,23.55L137.03,37.79L137.19,30.94L137.2,34.17L137.32,38.16L137.82,26.71L137.95,33.59L137.96,30.09L138.07,26.1L138.4,38.78L138.7,31.55L138.71,32.43L138.84,41.22L139.07,27.96L139.46,36.83L139.47,30.2L139.97,26.96L140.12,42.36L140.23,37.05L140.24,27.48L140.37,38.78L140.8,26.11L141,34.97L141.01,32.34L141.07,37.36L141.16,26.33L141.39,33.95L141.4,25.55L141.84,40.06L142.16,34.27L142.17,32.1L142.5,26.23L142.72,39.29L142.91,26.51L142.92,32.36L143.11,21.98L143.63,39.72L143.65,33.73L143.66,30.38L143.85,39.96L144.18,26.59L144.4,31.79L144.41,26.2L144.61,24.69L145.03,38.56L145.21,36.54L145.22,32.87L145.25,39.45L145.67,25.63L145.82,37.6L145.83,28.09L145.91,25.18L146.27,37.26L146.5,32.85L146.51,26.53L146.88,21.56L147.14,37.8L147.27,33.64L147.28,27.91L147.37,22.8L147.47,37.95L148.02,31.71L148.03,26.57L148.04,38.06L148.77,24.48L148.78,29.27L148.79,27.76L148.83,21.95L148.91,38.57L149.55,31.09L149.56,29.44L150.07,40.52L150.26,24.61L150.3,32.43L150.31,32.54L150.35,24.23L150.94,37.88L151.06,32.86L151.07,31.07L151.29,24.79L151.51,39.55L151.79,32.06L151.8,29.27L151.83,21.72L152.15,34.28L152.49,29.99L152.5,32.14L152.61,34.79L153,23.55L153.24,30.4L153.25,33.91L153.32,35.6L153.52,23.61L154.01,28.81L154.02,28.09L154.43,36.66L154.65,21.12L154.75,28.41L154.76,32.08L154.93,35.69L155.37,21.23L155.41,26.48L155.42,29.39L155.49,20.8L155.61,33.28L156.15,32.01L156.16,32.64L156.59,33.72L156.86,19.85L156.92,26.67L156.93,30.51L157.15,20.42L157.66,34.59L157.68,29.42L157.69,29.21L157.74,35.21L158,20.58L158.43,28.8L158.44,29.22L158.59,21.26L158.73,35.64L159.04,26.81L159.05,22.62L159.07,16.51L159.74,38.45L159.8,29.45L159.81,29.66L160.2,36.35L160.39,23.6L160.57,32.87L160.58,28.32L160.93,37.25L161.02,22.33L161.32,29.86L161.33,25.34L161.4,22.4L161.73,36.28L162.04,30.67L162.05,22.06L162.77,38.89L162.81,29.89L162.82,26.01L163.19,24.72L163.37,36.59L163.57,27.05L163.58,24.21L164.19,36.52L164.21,21.4L164.34,29.65L164.35,26.46L164.43,23.12L164.46,36.95L165.13,34.14L165.14,31.85L165.18,39.06L165.45,20.44L165.9,25.45L165.91,27.6L166.49,22.16L166.59,35.58L166.65,26.22L166.66,31.05L166.88,34.24L166.94,23.22L167.42,26.43L167.43,31.79L167.73,36.03L167.79,22.07L168.18,24.01L168.19,28.12L168.37,23.14L168.59,34.15L168.92,27.69L168.93,25.35L168.94,37.23L169.4,21.81L169.68,26.32L169.69,25.56L169.83,19.16L170.04,33.01L170.43,26.07L170.44,23.12L170.45,30.89L170.81,18.26L171.19,23.47L171.2,25.83L171.24,20.89L171.41,32.53L171.94,28.29L171.95,29.01L172.26,32.23L172.5,17.51L172.68,30.68L172.69,20.91L173,18.22L173.42,34.27L173.45,29.7L173.46,26.45L173.55,21.27L173.58,33.06L174.21,27.25L174.22,23.74L174.59,16.88L174.65,31.69L174.95,26.23L174.96,23.76L175.13,36.59L175.44,23.19L175.67,36.24L175.68,22.37L176.06,21.41L176.16,35.49L176.42,27.06L176.43,16.85L176.47,35.85L177.19,30.21L177.2,25.81L177.32,35.76L177.54,17.42L177.86,26.22L177.87,21.2L178.15,18.29L178.31,32.78L178.63,26.37L178.64,27.5L178.73,19.78L179.09,34.01L179.37,26.62L179.38,25.31L179.77,31.24L180.02,17.76L180.12,26.03L180.13,23.6L180.62,36.69L180.77,19.6L180.86,24.56L180.87,26.92L181.46,17.67L181.59,33.37L181.61,25.44L181.62,28.85L181.71,19.77L181.77,32.61L182.15,23.48L182.16,27.88L182.58,17.25L182.79,31.17L182.91,25.42L182.92,27.12L182.99,16.4L183.31,34.38L183.6,25.01L183.61,20.76L184.33,33.41L184.35,19.63L184.36,28.15L184.37,25.01L184.67,17.88L184.71,30.59L185.11,29.8L185.12,24.92L185.57,21.21L185.6,32.95L185.87,30.52L185.88,25.3L186.15,21.04L186.25,35.07L186.63,28.59L186.64,25.64L187.21,19.55L187.33,36.87L187.39,26.09L187.4,23.96L187.54,38.57L187.88,21.87L188.17,32.34L188.18,28.86L188.3,35.43L188.81,21.32L188.88,25.98L188.89,19.72L189.52,32.66L189.62,16.12L189.63,20.4L189.64,18.26L190.17,31.34L190.41,28.24L190.42,22.51L190.68,35.15L191.1,20.63L191.18,29.36L191.19,25.67L191.38,34.37L191.75,20.16L191.95,28.29L191.96,27.52L192.35,17.95L192.62,33.88L192.69,29.22L192.7,30.99L192.91,32.33L193.34,17.27L193.45,24.16L193.46,30.4L193.5,31.81L193.93,18.57L194.22,23.91L194.23,27.08L194.26,19.03L194.34,32.82L194.96,22.06L194.97,30.03L195.16,18.11L195.72,23.64L195.73,28.75L196.04,20.57L196.38,31.66L196.48,24.34L196.49,30.14L196.7,30.89L197.03,16.99L197.23,24.52L197.24,30.79L197.56,16.09L197.99,22.88L198,25.39L198.15,16L198.27,30.47L198.74,24.75L198.75,21.04L198.87,16.98L199.44,30.34L199.5,22.92L199.51,27.49L199.96,17.28L200.25,28.49L200.26,24.61L200.27,27.02L200.32,19.45L200.94,32.48L201.02,26.65L201.03,24.49L201.13,21.78L201.27,35.72L201.79,28.85L201.8,26.06L201.89,19.45L202.33,32.72L202.53,24.9L202.54,30.77L202.91,17.43L203.25,32.42L203.3,22.53L203.31,28.79L203.82,19.51L203.85,33.27L204.06,27.83L204.07,26.35L204.55,20.38L204.61,32.74L204.79,26.47L204.8,21.72L205.33,33.41L205.55,28.65L205.56,26.23L205.92,33.98L205.94,21.08L206.3,25.34L206.31,22.53L206.35,35.29L206.93,20.95L207.06,25.97L207.07,26.39L207.2,20.84L207.56,31.49L207.76,26.99L207.77,34.21L208.38,22.87L208.48,34.41L208.53,23.89L208.54,28.04L209.03,17.16L209.1,32.6L209.27,29.92L209.28,24.96L209.3,33.25L209.58,21.01L209.94,30.92L209.95,21.73L210.43,36.6L210.71,33.66L210.72,32.68L210.84,38.46L210.88,24.82L211.46,28.24L211.47,33.2L211.59,38.94L211.84,22.76L212.21,28.93L212.22,36.63L212.29,24.78L212.47,37.37L212.67,31.64L212.68,36.99L212.83,25.27L212.88,39.13L213.43,26.89L213.44,31.69L213.83,25.54L214.1,37.32L214.19,28.51L214.2,28.81L214.3,38.19L214.74,23.96L214.97,33.42L214.98,32.4L215.33,27.75L215.37,42.68L215.71,36.25L215.72,35.52L216.02,41.92L216.2,25.57L216.43,32.19L216.44,35.77L216.93,39.89L217.01,29.79L217.18,30.91L217.19,38.43L217.31,39.02L217.81,24.94L217.95,31.79L217.96,35.06L218.18,26.77L218.31,39.98L218.67,37.65L218.68,27.63L218.73,39.22L219.08,24.98L219.44,34.45L219.45,28.06L219.76,39.62L220.15,26.17L220.23,35.64L220.24,31.51L220.34,42.24L220.81,26.82L220.99,33.09L221,36.63L221.07,39.88L221.62,25.33L221.71,31.2L221.72,31.81L221.77,23.39L222.18,38.33L222.38,31.79L222.39,37.15L222.76,43.11L222.95,28.5L223.1,33.72L223.11,39.49L223.12,21.71L223.62,40.59L223.86,26.49L223.87,32.79L224.38,26.33L224.47,40.41L224.58,36.07L224.59,29.59L224.61,27.26L224.95,42.23L225.34,31.55L225.35,30.44L225.4,27.55L225.68,41.51L226.1,38.27L226.11,30.87L226.23,41.11L226.61,24.82L226.73,29.65L226.74,25.79L227.09,35.97L227.13,24.38L227.49,30.8L227.5,29.95L227.75,24.01L228.12,38.75L228.22,33.06L228.23,33.26L228.71,38.5L228.91,26.65L228.98,32.71L228.99,35.68L229.21,25.21L229.38,43.35L229.7,34.13L229.71,35.17L230.36,42.75L230.37,27.81L230.47,29.78L230.48,37.38L231,39.86L231.05,25.9L231.24,31.46L231.25,36.87L231.82,44.12L231.99,26.9L232,33.29L232.01,34.38L232.08,25.34L232.61,42.38L232.77,31.28L232.78,31.41L232.79,38.89L233.09,26.76L233.53,35.5L233.54,31.12L233.79,39.33L234.17,25.4L234.25,30.7L234.26,35.07L234.38,38.64L234.77,25.33L235,32.4L235.01,36.42L235.26,40.44L235.56,24.48L235.76,28.04L235.77,31.57L235.93,25.22L236.38,39.91L236.39,27.18L236.64,25.67L237.01,36.51L237.14,31.07L237.15,32.94L237.31,38.07L237.62,25.74L237.77,32.16L237.78,33.12L238.18,22.44L238.22,36.39L238.53,30.11L238.54,31.2L238.8,26.16L238.91,38.93L239.25,30.51L239.26,35.87L239.39,26.01L239.83,38.74L240.01,33.12L240.02,30.92L240.45,26.48L240.52,38.7L240.76,30.45L240.77,28.68L241.03,37.85L241.34,21.23L241.53,32.03L241.54,31.11L241.65,24.06L241.82,37.19L242.27,32.26L242.28,34.38L242.36,24.79L242.95,40.5L243.02,34.96L243.03,35.08L243.35,39.56L243.36,26.6L243.7,33.1L243.71,26.42L244.05,25.09L244.1,38.59L244.45,30.73L244.46,29.11L244.78,22.03L244.91,33.85L245.21,32.18L245.22,29.11L245.69,23.4L245.76,34.99L245.97,29.01L245.98,28.63L246.18,22.58L246.74,39.5L246.75,29.92L247.09,22.63L247.32,40.09L247.49,28.88L247.5,31.36L247.55,22.8L247.91,35.79L248.22,28.46L248.23,23.33L248.34,22.99L248.68,36.42L248.99,36.26L249,32.01L249.1,24.44L249.69,38.95L249.75,31.9L249.76,34.18L250.32,23.83L250.42,39.09L250.47,35.09L250.48,36.39L250.98,45.42L251.18,27.8L251.21,33.22L251.22,38.21L251.35,26.42L251.77,39.21L251.97,34.23L251.98,37.65L252.3,40.86L252.34,28.19L252.75,30.84L252.76,38.79L252.86,39.66L253.28,25.91L253.52,32.13L253.53,35.26L253.97,42.04L254.11,26.31L254.27,34.32L254.28,35.99L254.65,27.31L254.88,40.28L255.03,32.47L255.04,40.17L255.21,45.07L255.73,26.85L255.81,29.95L255.82,37.67L256.22,39.7L256.43,26.1L256.57,36.39L256.58,34.57L256.95,41.93L257.27,25.51L257.3,28.98L257.31,34.45L257.34,22.18L257.68,39.61L258.05,25.3L258.06,29.43L258.31,37.92L258.46,21.15L258.81,29.58L258.82,33.1L259.09,35.63L259.45,23.29L259.58,24.82L259.58,32.22L259.87,26.68L259.92,38.92L260.23,31.34L260.24,30.23L260.44,36.85L260.71,25.63L260.94,30.46L260.95,33.42L261.05,35.82L261.26,25.14L261.7,27.49L261.71,31.45L261.74,36.97L262.16,22.73L262.45,30.82L262.46,36.2L262.65,37.82L262.95,24.28L262.98,31.85L262.99,36.99L263.59,26.6L263.7,38.58L263.75,28.07L263.76,32.82L263.88,39.68L264.03,26.72L264.49,35.7L264.5,37.11L264.61,40.36L265.02,24.47L265.13,30.01L265.14,34.42L265.21,26.62L265.48,37.57L265.89,29.79L265.9,33.9L266.17,37.15L266.23,25.93L266.62,29.73L266.63,28.31L266.8,27.56L267.16,39.92L267.39,34.27L267.4,33.64L267.58,27.73L268.01,41.49L268.13,29.95L268.14,35.48L268.3,38.65L268.66,27.71L268.88,35.04L268.89,35.92L269,39.63L269.1,27.23L269.61,36.14L269.62,32.32L269.99,29.06L270.19,41.58L270.37,34.3L270.38,31.64L270.63,25.96L271.08,37.78L271.12,29.23L271.13,30.29L271.47,38.9L271.79,26.88L271.86,29.61L271.87,33.72L272.17,24.69L272.34,38.92L272.61,31.87L272.62,36.13L272.89,29.18L273.01,41.24L273.36,34.14L273.37,37.05L273.44,44.51L273.83,30.51L274.02,35.96L274.03,32.88L274.32,26.61L274.48,42.03L274.7,33.07L274.71,36.64L274.94,29.37L275.4,44.3L275.46,31.25L275.47,41.01L276.12,30.6L276.15,42.18L276.21,33.93L276.22,41.63L276.4,41.83L276.58,31.45L276.97,35.8L276.98,35.27L277.54,30.26L277.61,44.31L277.7,38.77L277.71,42.34L278.08,46.83L278.39,31.34L278.43,41.29L278.44,42.12L278.63,32.28L278.84,45.39L279.19,41.44L279.2,40.76L279.74,43.14L279.93,31.48L279.95,36.62L279.96,39.26L280.07,43.02L280.28,28.11L280.67,42.08L280.68,33.6L280.7,44.05L281.11,29.27L281.42,37.12L281.43,36.1L281.71,27.28L281.92,43.6L282.16,29.97L282.17,29.8L282.22,41.81L282.42,27.65L282.92,36.94L282.93,33.48L282.99,40.17L283.48,25.52L283.63,31.57L283.64,34.24L284.2,42.16L284.36,30.12L284.39,34.4L284.4,36.1L284.78,42.41L285.12,30.72L285.14,35.71L285.15,38.14L285.45,41.05L285.62,27.02L285.9,33.62L285.91,37.3L286.18,29.82L286.33,39.63L286.66,36.05L286.67,36.61L286.75,29.79L287.29,42.33L287.41,33.74L287.42,39.23L287.63,42.19L288.12,27.76L288.17,35.24L288.18,35.3L288.38,27L288.88,41.04L288.91,35.57L288.92,37.08L289.07,41.25L289.08,28.86L289.6,35.93L289.61,40.44L289.85,27.62L289.89,42.04L290.37,30.91L290.38,33.32L290.59,29.7L290.96,44.42L291.13,41.54L291.14,36.97L291.51,29.87L291.78,43.26L291.89,34.2L291.9,35.95L292.16,29.84L292.4,42.48L292.6,39.54L292.61,40.29L292.73,41.7L293.18,28.79L293.37,35.53L293.38,34.26L293.87,31.15L294.04,42.47L294.05,41.66L294.06,30.56L294.31,42.52L294.82,38.26L294.83,40.92L295.11,29.43L295.19,41.2L295.58,39.66L295.59,39.1L295.82,42.34L295.99,31.18L296.35,33.85L296.36,41.96L296.55,30.6L296.94,43.43L297.12,32.25L297.13,36.79L297.28,29.35L297.67,41.28L297.87,34.34L297.88,38.21L297.9,44.87L297.94,33.17L298.19,37.06L298.2,31.71L298.49,29.56L298.7,42.27L298.95,36.4L298.96,34.97L299.44,41.84L299.57,29.81L299.67,37.72L299.68,38.24L299.87,28.78L300.19,41.53L300.43,34.44L300.44,37.35L300.84,38.63L300.87,25.4L301.2,30.19L301.21,32.13L301.69,38.53L301.87,26.76L301.96,32.94L301.97,30.46L302.18,27.14L302.46,40.62L302.73,36.61L302.74,33.47L303.21,40.46L303.37,25.77L303.44,30.37L303.45,25.85L303.78,39.97L304.2,29.24L304.21,36.81L304.45,40.32L304.96,29.42L304.97,32.86L304.98,35.59L305.06,24.87L305.42,40.03L305.72,29.25L305.73,37.89L305.78,39.19L306.21,25.43L306.5,28.03L306.51,35.12L306.73,40.91L307.1,25.07L307.25,33.63L307.26,39L307.85,23.98L308,31.99L308.01,38.17L308.06,25.94L308.44,39.87L308.76,32.66L308.77,32.9L309.1,41.2L309.28,27.09L309.52,36.11L309.53,34.67L309.68,28.37L309.93,38.24L310.01,35.17L310.02,37.99L310.09,40.39L310.58,24.62L310.78,29.33L310.79,35.64L310.9,28.51L311,39.5L311.54,32.45L311.55,34.53L312,37.15L312.05,24.12L312.3,34.46L312.31,32.66L312.46,23.39L312.76,41.55L313.05,35.38L313.06,30.69L313.2,26.16L313.4,40.04L313.63,29.21L313.64,35.51L314.2,26.93L314.25,38L314.38,32.5L314.39,37.89L314.44,24.74L315.09,40.77L315.14,35.7L315.15,33.82L315.22,39.34L315.61,27.29L315.88,32.99L315.89,32.33L316.27,39.99L316.55,27.91L316.64,32.05L316.65,30.83L316.81,37.07L317.3,25.63L317.38,31.39L317.39,34.45L317.94,24.14L318.09,38.62L318.13,31.98L318.14,33.31L318.24,23.65L318.25,40.13L318.88,34.78L318.89,31.44L318.99,23.44L319.07,37.32L319.63,34.7L319.64,30.47L319.83,37.65L320.01,23.63L320.38,30.61L320.39,29.64L321,24.98L321.1,37.82L321.13,35.51L321.14,24.53L321.84,40.16L321.9,38.79L321.91,34L321.95,27.85L322.15,38.87L322.53,33.51L322.54,28.22L322.74,39.29L323.28,22.41L323.29,34.24L323.3,33.66L323.39,34.34L323.51,22.73L324.05,28.64L324.06,29.28L324.15,25.02L324.68,41.29L324.78,33.11L324.79,35.01L325.38,38.42L325.43,25.89L325.53,33.79L325.54,34.81L325.78,40.31L325.89,27.88L326.05,33.56L326.06,36.13L326.29,40.84L326.79,27.89L326.8,34.07L326.81,34.84L327.29,38.96L327.56,27.56L327.57,34.27L327.64,27.94L328.15,38.21L328.33,31.42L328.34,33.24L328.42,40.53L329.02,23.85L329.09,31.31L329.1,33.35L329.15,27.09L329.19,39.79L329.84,32.5L329.85,36.77L329.89,40.14L329.97,27.34L330.56,37.01L330.57,39.13L330.87,27.25L331.32,32.13L331.33,38.54L331.35,27.39L332.08,30.09L332.09,31.85L332.58,25.72L332.82,39.96L332.85,39.16L332.86,33.92L333.21,39.62L333.55,25.89L333.59,31.1L333.6,30.09L334.19,23.76L334.32,38.69L334.36,32.72L334.37,32.2L334.66,25.96L334.77,39.38L335.1,34.18L335.11,39.49L335.18,40.41L335.2,24.64L335.87,30.27L335.88,32.61L336.59,38.91L336.6,25.78L336.62,32.62L336.63,29.82L336.83,26.54L336.87,38.3L337.35,33.4L337.36,33.88L337.84,24.52L338.01,39.08L338.15,28.63L338.16,29.31L338.28,24.98L338.45,38.2L338.92,34.45L338.93,28.77L339.09,40.13L339.57,27.32L339.68,36.61L339.69,32.25L339.9,24.06L340.23,38.15L340.44,35.73L340.45,33.96L340.94,26.87L341.11,39.83L341.2,30.27L341.21,34.72L341.43,26.15L341.65,39.43L341.76,35.26L341.77,37.78L341.84,28.24L342.08,38.86L342.55,29.73L342.56,31.5L342.59,28.6L342.6,37.24L342.85,29.38L342.86,39.64L343.33,24.63L343.61,27.91L343.62,30.03L343.86,37.32L343.87,24.41L344.37,32.48L344.38,26.24L344.63,39.05L345.11,23.59L345.14,32.43L345.15,30.56L345.34,39.23L345.72,25.38L345.88,29.83L345.89,35.73L346.13,38.99L346.52,22.89L346.65,30.18L346.66,30.74L346.7,24.6L346.87,36.46L347.05,32.81L347.06,35.15L347.26,27.74L347.55,39.4L347.81,32L347.82,31.92L348.3,39.89L348.38,27.33L348.55,37.1L348.56,29.48L348.78,27.08L349.27,39.34L349.32,38.88L349.33,32.84L349.34,41.96L349.79,27.14L350.08,35.08L350.09,33.83L350.33,41.04L350.52,23.57L350.83,28.44L350.84,29.95L351.21,41L351.24,25.45L351.59,32.95L351.6,30.19L351.78,27.75L352.11,41.31L352.36,37.24L352.37,34.73L352.48,40.7L352.76,28.56L352.9,34.6L352.91,28.28L353.51,44.51L353.66,34.84L353.67,32L353.74,39.76L354.01,25.95L354.41,32.76L354.42,32.65L354.53,37.9L354.91,24.58L355.06,33.36L355.07,36.2L355.24,39.6L355.84,25.18L355.85,30.71L356.25,41.63L356.57,26.83L356.58,27.71L356.59,35.98L356.87,43.18L357.13,26.69L357.34,30.36L357.35,34.55L357.76,25.56L357.97,38.95L358.07,32.62L358.08,30.56L358.52,38.88L358.54,27.36L358.66,33.9L358.67,27.46L359.14,25.58L359.39,39.92L359.43,33.57L359.44,32.62L359.57,26.72L360.05,38.86L360.17,34.95L360.18,27.95L360.26,38.98L360.83,25.35L360.93,31.21L360.94,32.23L361.21,37.64L361.49,26.27L361.68,30.57L361.69,32.34L361.73,36.6L361.93,26.52L362.43,28.07L362.44,32.85L362.66,23.83L363.13,39.8L363.19,35.62L363.2,33.18L363.53,25.58L363.78,39.17L363.91,31.49L363.92,29.41L363.98,25.23L364.59,42.02L364.63,30.34L364.64,40.85L365.12,27.1L365.39,34.28L365.4,35.18L365.48,41.74L365.97,26.79L366.09,33.61L366.1,30.35L366.29,40.07L366.53,24.89L366.85,37.13L366.86,33.84L367.06,39.8L367.37,28.63L367.61,33.8L367.62,38.97L367.69,43.23L367.98,26.73L368.38,31.71L368.39,36.88L368.51,40.52L369.01,27.61L369.12,34.15L369.13,35.33L369.34,27.17L369.49,41.88L369.87,36.43L369.88,35.59L370.01,43.63L370.58,29.68L370.6,33.1L370.61,38.25L370.75,28.54L370.81,42.51L371.31,30.87L371.32,31.49L371.36,41.1L371.89,26.22L371.93,34.73L371.94,42.62L372.19,28.98L372.7,31.22L372.71,32.69L372.76,28.22L373.16,40.97L373.44,32.46L373.45,31.95L373.81,40.35L373.86,25.74L374.17,33.98L374.18,35.56L374.44,27.52L374.64,42.23L374.94,30.81L374.95,37.56L375.45,42.1L375.64,28.8L375.69,31.4L375.7,37.73L375.71,26.05L376.39,41.84L376.45,34.01L376.46,36.35L376.77,40.79L376.91,29.74L377.2,37.58L377.21,36.69L377.75,26.33L377.92,41.57L377.96,35.7L377.97,34.64L378.09,28.22L378.55,43.98L378.72,35.78L378.73,35.6L378.84,42.18L379.26,29.1L379.43,31.89L379.44,40.11L379.69,40.2L380.12,27.35L380.19,35.85L380.2,31.62L380.71,28.24L380.96,38.9L380.97,33.32L381.42,40.47L381.6,26.48L381.7,32.91L381.71,29.64L381.89,27.27L382.34,42.75L382.47,36.28L382.48,33.3L382.76,42.22L383.18,28.23L383.22,32.24L383.23,32.45L383.36,42.97L383.63,27.78L383.95,37.44L383.96,27.9L383.99,38.64L384.29,27.17L384.71,32.09L384.72,34.35L385,40.17L385.17,28.09L385.47,37.08L385.48,27.73L385.58,26.01L385.79,40.79L386.23,35.47L386.24,29.48L386.26,40.52L386.51,26.5L386.83,34.75L386.84,41.22L386.85,42.63L387.2,29.23L387.52,34.64L387.53,25.23L387.97,39.69L388.28,37.54L388.29,34.33L388.46,27.6L388.77,38.7L388.89,33.97L388.9,36.31L388.98,39.3L389.21,26.52L389.65,27.92L389.66,30.89L389.8,29.16L390.33,44.2L390.42,36.98L390.43,33.72L390.46,31.61L390.55,38.26L390.6,38.03L390.61,38.98L390.78,41.86L390.92,28.98L391.37,33.06L391.38,36.95L391.82,40.71L392.1,27.06L392.14,29.42L392.15,33.61L392.22,42.1L392.25,26.77L392.89,31.56L392.9,32.72L392.94,30.53L393.02,41.49L393.58,32.2L393.59,38.6L394.13,40.87L394.33,28.76L394.34,40.26L394.69,28.67L394.95,41.16L395.1,32.84L395.11,31.01L395.47,39.46L395.82,24.83L395.86,31.92L395.87,30.06L396.18,39.08L396.43,27.07L396.63,38.62L396.64,31.2L397.07,25.13L397.39,39.48L397.4,38.37L397.41,37.08L397.5,41.38L397.96,26.66L398.08,32.03L398.09,29.64L398.36,25.98L398.86,39.58L398.87,33.95L398.88,32.29L398.97,28.94L399.37,42.37L399.58,37.17L399.59,30.23L399.74,39.19L400.17,26.09L400.33,31.15L400.34,30.22L400.75,39.71L400.79,25.64L401.11,35.67L401.12,35.1L401.36,40.71L401.6,28.22L401.74,32.88L401.75,34.91L401.91,24.34L402.21,39.61L402.46,30.31L402.47,30.71L402.69,23.1L402.78,40.62L403.22,31.75L403.23,31.29L403.71,38.97L403.94,24.87L403.98,31.94L403.99,30.99L404.18,24.59L404.28,39.39L404.71,30.25L404.72,29.59L405.08,39.57L405.21,26.67L405.42,32.39L405.43,35.44L405.66,37.73L405.7,26.58L406.18,27.71L406.19,40.5L406.5,24.55L406.95,29.67L406.96,29.78L407.23,25.49L407.43,39.16L407.68,28.68L407.69,33.45L408.18,22.43L408.33,37.79L408.43,35.48L408.44,27.05L408.59,43.62L409.19,37.55L409.2,34.53L409.32,41.93L409.81,27.87L409.94,41.52L409.95,31.95L410.34,39.7L410.63,27.81L410.7,34.26L410.71,26.71L410.82,23.22L411.28,37.85L411.47,34.07L411.48,30.12L411.65,38.65L411.77,25.24L412.23,32.25L412.24,35.07L412.27,36.71L412.49,23.44L413,27.49L413.01,31.86L413.03,38.03L413.06,26.19L413.7,31.13L413.71,30.71L413.91,25.68L414.05,38.09L414.32,33.07L414.33,39.44L414.46,25.95L415.02,40.07L415.07,33.06L415.08,42.14L415.12,29.73L415.83,36.63L415.84,37.95L416.09,28.06L416.42,40.27L416.58,34.1L416.59,38.21L416.6,40.48L417.26,28.86L417.31,32.52L417.32,32.58L417.37,27.37L417.62,39.99L418.06,34.75L418.07,33.07L418.09,29.85L418.52,41.39L418.8,32.8L418.81,31.42L419.27,29.43L419.3,42.15L419.56,34.95L419.57,33.3L419.65,28.75L419.68,42.26L420.3,32.85L420.31,39.23L420.48,28.66L420.55,45.43L421.06,34.88L421.07,36.62L421.13,43.54L421.39,27.02L421.81,37.12L421.82,38.24L421.84,43.09L422.32,23.97L422.57,33.04L422.58,37.37L422.76,40.85L423.25,29.18L423.33,32.44L423.34,38.9L423.53,41.98L423.69,27.64L424.1,33.5L424.11,32.24L424.38,23.1L424.73,40.38L424.84,33.52L424.85,34.42L425.2,28.93L425.37,41.09L425.58,35.32L425.59,38.6L426.04,42.05L426.32,26.1L426.35,33.39L426.36,34.89L426.51,41.88L426.98,27.34L427.01,33.91L427.02,39.27L427.08,25.72L427.64,41.38L427.77,38L427.78,40.25L427.9,40.68L428.33,26.63L428.52,30.22L428.53,38.36L428.7,40.35L428.89,26.86L429.28,34.83L429.29,39.73L429.93,42.7L430.02,27.5L430.03,41.17L430.04,40.46L430.45,28.35L430.55,45.4L430.8,31.45L430.81,32.05L430.99,22.92L431.06,42.1L431.53,34.54L431.54,30.05L431.77,38.96L431.93,24.95L432.29,33.21L432.3,29.57L432.52,26.6L432.55,38.22L432.77,34.22L432.78,28.16L433.07,25.7L433.39,41.3L433.53,28.81L433.54,30.95L433.8,38.06L434.15,26.01L434.28,31.85L434.29,32.19L434.4,37.36L434.83,24.6L435.02,34.62L435.03,28.86L435.27,39.72L435.46,25.52L435.8,37.97L435.81,30.08L435.93,27.54L435.98,40.45L436.53,31.79L436.54,35.79L436.94,38.84L437.02,25.57L437.28,35.46L437.29,36.06L437.66,27.1L437.76,38.73L438.04,31.15L438.05,33.02L438.33,38.17L438.35,26.01L438.5,30.26L438.51,27.16L438.8,39.92L439.16,25.36L439.26,31.12L439.27,27.72L439.35,38.51L439.53,25.84L440.04,36.3L440.05,29.33L440.64,38.87L440.78,27.17L440.8,33.15L440.81,30.18L441.39,27.8L441.4,39.35L441.55,31.19L441.56,29.76L441.68,40.32L442.12,26.5L442.25,34.31L442.26,30.39L442.56,39.14L442.74,25.4L443,32.29L443.01,32.92L443.17,25.21L443.35,42.73L443.76,34.08L443.77,34.75L443.92,39.86L444.33,27.18L444.51,36.93L444.52,38.26L445.1,41.48L445.21,26.41L445.28,31.68L445.29,35.15L445.57,41.14L445.84,27.51L445.99,37.93L446,29.51L446.21,27.1L446.53,41.57L446.75,32.5L446.76,25.74L447.46,39.45L447.51,33.61L447.52,31.64L447.64,26.51L448.23,40L448.28,34.4L448.29,31.99L448.39,25.02L448.59,39.6L449.03,36.57L449.04,30.9L449.26,40.14L449.42,26.06L449.76,30.45L449.77,37.48L450.05,23.55L450.3,41.36L450.46,37.95L450.47,34.02L450.52,37.44L450.75,25.11L451.24,31.5L451.25,32.01L451.71,25L451.81,40.94L451.99,31.98L452,33.81L452.13,27.1L452.31,39.32L452.69,33.5L452.7,37.34L453.06,25.04L453.16,38.7L453.44,30.18L453.45,34.55L453.6,22.74L454.14,39.76L454.19,35L454.2,35.65L454.35,39.74L454.9,25.21L454.94,31.93L454.95,34.96L455.19,41.23L455.62,22.04L455.7,28.7L455.71,29.13L456.16,25.25L456.36,37.98L456.42,28.17L456.43,34L456.9,28.39L457.02,37.86L457.18,29.53L457.19,32.48L457.66,41.49L457.68,27.07L457.93,35.83L457.94,29.96L458.52,24.11L458.7,43.9L458.71,33.62L459.17,26.07L459.37,39.97L459.45,34.14L459.46,38.01L459.47,42.13L459.75,24.48L460.19,37.2L460.2,29.67L460.46,39.98L460.67,23.31L460.96,33.65L460.97,33.61L460.98,26.7L461.44,43.03L461.71,36.48L461.72,33.79L461.81,27.88L462.11,43.33L462.4,33.25L462.41,38.75L462.51,25.72L463.16,31.99L463.17,37.08L463.21,38.83L463.46,27.46L463.83,36.1L463.84,28.37L463.9,25.6L464.56,39.37L464.6,31.45L464.61,33.16L464.65,40.95L464.76,28.07L465.33,35.17L465.34,37.15L465.56,25.37L465.77,40.98L466.07,39.74L466.08,39.29L466.27,40.27L466.63,28.44L466.83,36.22L466.84,33.33L466.89,42.31L467.43,28.92L467.6,40L467.61,39.18L467.7,46.76L467.8,28.42L468.31,38.26L468.32,40.18L468.76,40.85L468.94,27.73L469.08,31.7L469.09,34.34L469.56,39.29L469.66,26.77L469.8,37.01L469.81,38.56L470.18,41.48L470.53,27.86L470.56,29L470.57,36.28L470.65,29.59L470.91,42.04L471.29,33.95L471.3,37.86L471.63,41.73L472.01,28.46L472.04,34.38L472.05,38.05L472.2,42.72L472.54,28.29L472.66,38.36L472.67,39.75L472.95,41.73L473.07,29.48L473.28,35.16L473.29,36.83L473.67,28.84L473.8,44.15L474.03,37L474.04,32.37L474.46,29.5L474.53,44.53L474.79,40.36L474.8,33.41L475.24,29.5L475.4,44.81L475.55,41.57L475.56,36.06L475.74,31.82L475.78,43.24L476.24,37.27L476.25,39.37L476.41,45.02L476.81,28.41L476.99,35.17L477,39.47L477.1,43.97L477.48,31.35L477.75,36.4L477.76,36.79L478.02,44.37L478.22,32.96L478.51,35.14L478.52,41.29L478.61,32.38L478.75,46.07L479.27,34.64L479.28,38.99L479.45,31.07L479.79,41.99L479.96,34.13L479.97,40.25L480.13,28.04L480.37,48.5L480.71,34.98L480.72,42.59L480.81,29.83L481.44,43.53L481.47,34.5L481.48,34.37L482.04,25.88L482.22,41.87L482.23,37.11L482.24,34.06L482.44,39.51L482.9,29.21L482.98,35.55L482.99,28.32L483.39,27.69L483.75,41.1L483.76,29.09L484.15,42.95L484.53,38.98L484.54,29.99L484.56,41.93L485.24,25.01L485.29,33.37L485.3,35.95L485.32,25.45L485.67,41.52L486.06,40.54L486.07,34.29L486.17,43.7L486.45,30.96L486.81,32.67L486.82,32.34L487.28,29L487.43,41.72L487.56,33.6L487.57,32.17L487.71,26.87L487.84,42.03L488.32,36.43L488.33,32.77L488.54,40.48L488.87,25.78L489.08,33.74L489.09,34.84L489.27,26.94L489.4,40.52L489.85,37.74L489.86,31.73L490.02,43.27L490.48,30.53L490.61,37.13L490.62,32.54L491.06,43.25L491.26,30.1L491.36,34.35L491.37,31.7L491.53,40.45L492.05,27.26L492.1,33.15L492.11,30.32L492.39,30.05L492.53,42.34L492.87,40.4L492.88,35.76L493.2,44.93L493.21,28.6L493.63,36.37L493.64,33.02L493.79,42.61L494.15,26.74L494.35,33.36L494.36,25.25L494.93,39.82L495.12,35.96L495.13,37.74L495.57,39.78L495.78,24.71L495.87,35.53L495.88,43.25L496.35,29.04L496.63,32.1L496.64,38.15L496.96,25.85L497.4,30.4L497.41,35.83L497.67,24.02L497.81,38.29L498.17,28.74L498.18,31.58L498.28,38.42L498.45,28.61L498.76,30.46L498.77,28.65L498.79,26.25L498.85,34.81L499,26.53" style="vector-effect: non-scaling-stroke; fill: none; stroke: rgb(239, 85, 59); stroke-opacity: 1; stroke-width: 2px; opacity: 1;"/></g><g class="points"/><g class="text"/></g></g></g><g class="overplot"/><path class="xlines-above crisp" d="M79,420.5H579" style="fill: none; stroke-width: 1px; stroke: rgb(255, 255, 255); stroke-opacity: 1;"/><path class="ylines-above crisp" d="M79.5,100V420" style="fill: none; stroke-width: 1px; stroke: rgb(255, 255, 255); stroke-opacity: 1;"/><g class="overlines-above"/><g class="xaxislayer-above"><g class="xtick"><text text-anchor="middle" x="0" y="435.4" transform="translate(80,0)" style="font-family: 'Open Sans', verdana, arial, sans-serif; font-size: 12px; fill: rgb(42, 63, 95); fill-opacity: 1; white-space: pre;">0</text></g><g class="xtick"><text text-anchor="middle" x="0" y="435.4" transform="translate(179.8,0)" style="font-family: 'Open Sans', verdana, arial, sans-serif; font-size: 12px; fill: rgb(42, 63, 95); fill-opacity: 1; white-space: pre;">10k</text></g><g class="xtick"><text text-anchor="middle" x="0" y="435.4" transform="translate(279.6,0)" style="font-family: 'Open Sans', verdana, arial, sans-serif; font-size: 12px; fill: rgb(42, 63, 95); fill-opacity: 1; white-space: pre;">20k</text></g><g class="xtick"><text text-anchor="middle" x="0" y="435.4" transform="translate(379.41,0)" style="font-family: 'Open Sans', verdana, arial, sans-serif; font-size: 12px; fill: rgb(42, 63, 95); fill-opacity: 1; white-space: pre;">30k</text></g><g class="xtick"><text text-anchor="middle" x="0" y="435.4" transform="translate(479.21,0)" style="font-family: 'Open Sans', verdana, arial, sans-serif; font-size: 12px; fill: rgb(42, 63, 95); fill-opacity: 1; white-space: pre;">40k</text></g><g class="xtick"><text text-anchor="middle" x="0" y="435.4" transform="translate(579.01,0)" style="font-family: 'Open Sans', verdana, arial, sans-serif; font-size: 12px; fill: rgb(42, 63, 95); fill-opacity: 1; white-space: pre;">50k</text></g></g><g class="yaxislayer-above"><g class="ytick"><text text-anchor="end" x="76.6" y="4.199999999999999" transform="translate(0,404)" style="font-family: 'Open Sans', verdana, arial, sans-serif; font-size: 12px; fill: rgb(42, 63, 95); fill-opacity: 1; white-space: pre;">0</text></g><g class="ytick"><text text-anchor="end" x="76.6" y="4.199999999999999" transform="translate(0,349.46000000000004)" style="font-family: 'Open Sans', verdana, arial, sans-serif; font-size: 12px; fill: rgb(42, 63, 95); fill-opacity: 1; white-space: pre;">0.1</text></g><g class="ytick"><text text-anchor="end" x="76.6" y="4.199999999999999" transform="translate(0,294.91999999999996)" style="font-family: 'Open Sans', verdana, arial, sans-serif; font-size: 12px; fill: rgb(42, 63, 95); fill-opacity: 1; white-space: pre;">0.2</text></g><g class="ytick"><text text-anchor="end" x="76.6" y="4.199999999999999" transform="translate(0,240.39)" style="font-family: 'Open Sans', verdana, arial, sans-serif; font-size: 12px; fill: rgb(42, 63, 95); fill-opacity: 1; white-space: pre;">0.3</text></g><g class="ytick"><text text-anchor="end" x="76.6" y="4.199999999999999" transform="translate(0,185.85)" style="font-family: 'Open Sans', verdana, arial, sans-serif; font-size: 12px; fill: rgb(42, 63, 95); fill-opacity: 1; white-space: pre;">0.4</text></g><g class="ytick"><text text-anchor="end" x="76.6" y="4.199999999999999" transform="translate(0,131.31)" style="font-family: 'Open Sans', verdana, arial, sans-serif; font-size: 12px; fill: rgb(42, 63, 95); fill-opacity: 1; white-space: pre;">0.5</text></g></g><g class="overaxes-above"/></g></g><g class="polarlayer"/><g class="ternarylayer"/><g class="geolayer"/><g class="funnelarealayer"/><g class="pielayer"/><g class="treemaplayer"/><g class="sunburstlayer"/><g class="glimages"/><defs id="topdefs-f7c48c"><g class="clips"/><clipPath id="legendf7c48c"><rect width="99" height="48" x="0" y="0"/></clipPath></defs><g class="layer-above"><g class="imagelayer"/><g class="shapelayer"/></g><g class="infolayer"><g class="legend" pointer-events="all" transform="translate(588.98, 100)"><rect class="bg" shape-rendering="crispEdges" style="stroke: rgb(68, 68, 68); stroke-opacity: 1; fill: rgb(255, 255, 255); fill-opacity: 1; stroke-width: 0px;" width="99" height="48" x="0" y="0"/><g class="scrollbox" transform="translate(0, 0)" clip-path="url('#legendf7c48c')"><g class="groups"><g class="traces" transform="translate(0, 14.5)" style="opacity: 1;"><text class="legendtext user-select-none" text-anchor="start" x="40" y="4.680000000000001" style="font-family: 'Open Sans', verdana, arial, sans-serif; font-size: 12px; fill: rgb(42, 63, 95); fill-opacity: 1; white-space: pre;">Ligand</text><g class="layers" style="opacity: 1;"><g class="legendfill"/><g class="legendlines"><path class="js-line" d="M5,0h30" style="fill: none; stroke: rgb(99, 110, 250); stroke-opacity: 1; stroke-width: 2px;"/></g><g class="legendsymbols"><g class="legendpoints"/></g></g><rect class="legendtoggle" pointer-events="all" x="0" y="-9.5" width="93.703125" height="19" style="cursor: pointer; fill: rgb(0, 0, 0); fill-opacity: 0;"/></g><g class="traces" transform="translate(0, 33.5)" style="opacity: 1;"><text class="legendtext user-select-none" text-anchor="start" x="40" y="4.680000000000001" style="font-family: 'Open Sans', verdana, arial, sans-serif; font-size: 12px; fill: rgb(42, 63, 95); fill-opacity: 1; white-space: pre;">Backbone</text><g class="layers" style="opacity: 1;"><g class="legendfill"/><g class="legendlines"><path class="js-line" d="M5,0h30" style="fill: none; stroke: rgb(239, 85, 59); stroke-opacity: 1; stroke-width: 2px;"/></g><g class="legendsymbols"><g class="legendpoints"/></g></g><rect class="legendtoggle" pointer-events="all" x="0" y="-9.5" width="93.703125" height="19" style="cursor: pointer; fill: rgb(0, 0, 0); fill-opacity: 0;"/></g></g></g><rect class="scrollbar" rx="20" ry="3" width="0" height="0" style="fill: rgb(128, 139, 164); fill-opacity: 1;" x="0" y="0"/></g><g class="g-gtitle"><text class="gtitle" x="35" y="50" text-anchor="start" dy="0em" style="font-family: 'Open Sans', verdana, arial, sans-serif; font-size: 17px; fill: rgb(42, 63, 95); opacity: 1; font-weight: normal; white-space: pre;">Trajectory for Mpro-x1093_0_traj_nosolv_100ns_330K.dcd</text></g><g class="g-xtitle"><text class="xtitle" x="329.5" y="463.20625" text-anchor="middle" style="font-family: 'Open Sans', verdana, arial, sans-serif; font-size: 14px; fill: rgb(42, 63, 95); opacity: 1; font-weight: normal; white-space: pre;">Frame</text></g><g class="g-ytitle"><text class="ytitle" transform="rotate(-90,35.10625,260)" x="35.10625" y="260" text-anchor="middle" style="font-family: 'Open Sans', verdana, arial, sans-serif; font-size: 14px; fill: rgb(42, 63, 95); opacity: 1; font-weight: normal; white-space: pre;">RMSD</text></g></g></svg>